<svg xmlns="http://www.w3.org/2000/svg" width="1000" height="600" viewBox="0 0 1000 600"><g><g fill="#fff"><path d="M502.1 454.3l-7.5.6v-1.9h-1.9v1.9l-6.9.7v4.3l6.9-.7v1.8h1.9v-1.8l7.5-.7 3.6-2.1zM481.7 464.1l3.5 2.2 7.5.7v8.8h1.9v-8.8l7 .6v-4.2l-16.4-1.3z"/></g><g fill="#fff"><path d="M451.1 456.1h-7.5v-1.9h-1.9v1.9h-6.9v3.8h6.9v2.9h1.9v-2.9h7.5l3.6-1.9zM430.7 465.9l3.5 2.1h7.5v9h1.9v-9h7v-3.9h-16.4z"/></g><g fill="#fff"><path d="M535.8 452.1h1.8v23.7h-1.8zM538.8 452.8v10.9s2.5-2.1 8-.1c5.5 1.9 6.7 1.4 8.8 1.1 0 0-3.2-1.3-5-5.8 0 0 4.6-4 5-6.1 0 0-5.7 1.7-8.9.3-3.1-1.5-6.5-1.2-7.9-.3z"/></g><g fill="#fff"><path d="M603.8 473.8l7 1.4v-21.2l-7-1.4zM595.8 475.9l7-2.1v-21.2l-7 2.1zM586.8 473.1l7.9 2.8v-21.2l-7.9-2.8z"/></g><path fill="#fff" d="M744.7 450.1v23.9h20v-23.9h-20zm18 17h-16.1v-15.1h16.1v15.1z"/><g fill="#fff"><path d="M712.6 452h-14.9v4.9h1.8v-3h11.3v10.1h-3v5.9h4.8zM691.7 458.1v17.8h14.8v-17.8h-14.8zm13.1 12.1h-11.2v-10.2h11.2v10.2z"/></g><g fill="#fff"><path d="M828.5 467.1l-2.7 1.3v4.2l2.7 1.3c.5 0 1-.5 1-1.1v-4.6c0-.5-.4-1.1-1-1.1zM820.7 463c2.7 0 4.9-2.2 4.9-4.9s-2.2-4.9-4.9-4.9-4.9 2.2-4.9 4.9c-.1 2.6 2.1 4.9 4.9 4.9zm0-8c1.7 0 3 1.3 3 3s-1.3 3-3 3-3-1.3-3-3c0-1.6 1.3-3 3-3zM809.6 463c2.2 0 3.9-1.8 3.9-3.9 0-2.2-1.8-3.9-3.9-3.9-2.2 0-3.9 1.8-3.9 3.9 0 2.1 1.7 3.9 3.9 3.9zm0-6.4c1.3 0 2.4 1.1 2.4 2.4s-1.1 2.4-2.4 2.4c-1.3 0-2.4-1.1-2.4-2.4 0-1.3 1.1-2.4 2.4-2.4zM822.5 464.2h-14.8c-1.1 0-2.1.9-2.1 2.1v8.6c0 1.2.9 2.1 2.1 2.1h14.8c1.1 0 2.1-.9 2.1-2.1v-8.6c0-1.2-1-2.1-2.1-2.1z"/></g><g fill="#fff"><path d="M767.5 235.1h-2.8v20h2.8c.5 0 .9-.4.9-.9v-18.2c0-.6-.4-.9-.9-.9zM759.6 231c-.5 0-1.4.2-1.7.4.8.3 1.5 1.2 1.5 1.2h.2c1.3 0 2.4 1.1 2.4 2.5h-3.3c-.1-.8-.3-1.6-.8-2.2-.3-.5-.8-.9-1.2-1.2-.6-.4-1.3-.6-2-.6-2.1 0-3.8 1.8-4 4h-3.1c-.5 0-.9.4-.9.9v18.2c0 .5.4.9.9.9h15.9v-20c0-2.3-1.7-4.1-3.9-4.1zm-4.9 1.7l.8.1c.5.2.9.5 1.2 1 .2.4.4.8.5 1.3h-5c.2-1.4 1.3-2.4 2.5-2.4z"/></g><g fill="#fff"><path d="M268.6 69.1h-9.8v23.9h17.8v-14.9h-8v-9zm4.1 18h-10.1v-1.3h10.1v1.3zm.1-3h-10.2v-1.2h10.2v1.2zm-.1-3.3v1.2h-10.2v-1.2h10.2zM269.7 69v7.9h6.9z"/></g><g fill="#fff"><path d="M328.6 66.1h-7.8v18.9h14.7v-11.8h-6.9v-7.1zm4.2 15h-9.2v-1.2h9.2v1.2zm0-1.9h-9.4v-1.3h9.4v1.3zm0-4.3v1.3h-9.2v-1.3h9.2zM329.7 66.1v5.8h5.8z"/></g><path fill="#fff" d="M319.6 70.1h-2.8v18.9h14.7v-2.8h-11.9v-16.1zM397.7 460.2h-8.9l4.1-5.8-1.5-.3-4.4 6.2-4.4-6.2-1.5.3 4.1 5.8h-9.7c-.5 0-.9.4-.9.9v15c0 .5.4.9.9.9h22.2c.5 0 .9-.4.9-.9v-15c0-.5-.4-.9-.9-.9zm-5.9 13.4c0 .3-.2.6-.5.6h-13.3c-.3 0-.5-.3-.5-.6v-10.1c0-.3.2-.6.5-.6h13.3c.3 0 .5.3.5.6v10.1zm3.8 2.1c-.9 0-1.6-.7-1.6-1.6 0-.9.7-1.6 1.6-1.6.9 0 1.6.7 1.6 1.6.1.9-.7 1.6-1.6 1.6zM766.3 396h-21.3c-.8 0-1.4.6-1.4 1.4v16.1c0 .8.6 1.4 1.4 1.4h21.3c.8 0 1.4-.6 1.4-1.4v-16.1c0-.8-.6-1.4-1.4-1.4zm-19.7 13.2v-9.5c0-.5.4-.9.9-.9h16.2c.5 0 .9.4.9.9v9.5c0 .5-.4.9-.9.9h-16.2c-.5 0-.9-.4-.9-.9zm17.5 4.7c-.8 0-1.5-.7-1.5-1.6s.7-1.6 1.5-1.6 1.5.7 1.5 1.6-.6 1.6-1.5 1.6zM762.8 418.2h-4.3v-2.1h-5.8v2.1h-4.1c-.4 0-.8.1-.8.7s.3.9.8.9h14.2c.4 0 .8-.3.8-.9 0-.5-.3-.7-.8-.7z"/><g fill="#fff"><path d="M714.7 397.2v1.9h-2.1v-1.9h-1.9v1.9h-2.1v-1.9h-1.8v1.9h-2.1v-1.9h-2v1.9h-2v-1.9h-1.9v1.9h-2.2v-1.9h-2.9v20.8h24v-20.9h-3zm0 18.9h-18.2v-14.3h18.2v14.3zM696.7 395.1h1.9v1.8h-1.9zM700.7 395.1h1.9v1.8h-1.9zM704.7 395.1h1.9v1.8h-1.9zM708.7 395.1h1.9v1.8h-1.9zM712.7 395.1h1.9v1.8h-1.9zM702.7 406h-1v-1.9h2.8v9.8h-1.8v-7.9zM707.7 406h-1v-1.9h2.8v9.8h-1.8v-7.9z"/></g><path fill="#fff" d="M652.7 396c-6.6 0-13 5.3-13 11.9 0 6.6 6.4 11.9 13 11.9s12-5.3 12-11.9c0-6.6-5.4-11.9-12-11.9zm-1.5 17.9c-4.1 0-7.5-3.4-7.5-7.5s3.3-7.5 7.5-7.5c4.1 0 7.5 3.4 7.5 7.5-.1 4.2-3.4 7.5-7.5 7.5zM648.5 403.4c0-1.4 1.3-2.4 2.7-2.4s2.7 1 2.7 2.4c0 .9-.4 1.5-1 1.8 1 .5 1.8 1.3 1.8 2.6 0 1.8-1.4 3.1-3.5 3.1-2 0-3.5-1.3-3.5-3.1 0-1.2.8-2.1 1.8-2.6-.6-.4-1-1-1-1.8zm4.7 4.4c0-1-.8-1.8-2-1.8s-2 .8-2 1.8c0 1.1.8 1.8 2 1.8 1.1 0 2-.8 2-1.8zm-.6-4.3c0-.9-.6-1.5-1.5-1.5s-1.5.6-1.5 1.5.6 1.5 1.5 1.5 1.5-.7 1.5-1.5z"/><g fill="#fff"><path d="M598.8 419.2c-6.6 0-12-5.3-12-11.9 0-6.6 5.4-11.9 12-11.9s12 5.3 12 11.9c0 6.6-5.4 11.9-12 11.9zm0-20.9c-5 0-9.1 4.1-9.1 9.1s4.1 9.1 9.1 9.1 9.1-4.1 9.1-9.1-4.1-9.1-9.1-9.1zM600.8 407.4c-.1-.6-.4-1-1-1v-4.9h-.9v4.9c-.7.1-1.1.6-1.1 1.6 0 .9.6 1.4 1.4 1.4 0 0 1.4 0 1.5-1h4v-.9l-3.9-.1z"/></g><g fill="#fff"><path d="M441.7 419.9c-6.6 0-12-5.4-12-12s5.4-12 12-12 12 5.4 12 12c0 6.7-5.4 12-12 12zm.1-21.2c-5.1 0-9.2 4.1-9.2 9.2s4.1 9.2 9.2 9.2 9.2-4.1 9.2-9.2-4.1-9.2-9.2-9.2zM448.2 413l-5.5-6-.5.8 1.9 2.2-2.8-1.1-.6.8zM435.7 404l5.1 5.8 1.9-2.6z"/></g><g fill="#fff"><path d="M386 414.2c2.5-.5 4.3-2.8 4.3-5.4 0-1.3-.6-2.4-1.5-3.3-.9-.9-2.1-1.3-3.4-1.3-2.6.1-4.1 1.4-4.8 4.2-.5 2.1-2 4.3-3.3 4.9l-.8.3c.5.9 1.1 1.8 1.9 2.6.8.8 1.7 1.4 2.7 1.9.2-2 2.5-3.4 4.9-3.9zM395.1 416.4c4.6-4.6 4.6-12.2-.1-16.9-4.7-4.7-12.2-4.7-16.9-.1-3.5 3.5-4.3 8.8-2.5 13.1.3 0 .6 0 .9-.2 1.2-.7 2.4-2.6 3-4.8.9-3.6 2.5-5.1 5.8-5.2 1.7 0 3.3.6 4.5 1.8 1.2 1.2 1.9 2.8 2 4.5.1 3.4-1.4 5.8-4.7 6.4-2.6.5-5.1 2-5.2 4 4.5 1.8 9.7.9 13.2-2.6z"/></g><path fill="#fff" d="M333.6 396.1l-11-.1-5.9 11h8.4l-7.4 12.9 16.8-16.8h-6.8z"/><g fill="#fff"><path d="M258.7 408.2l3.1-3.1 3.8 3.8 10.9-10.9 3 3-14 14zM271.8 411v5h-14.2v-14.1h12l1.6-1.9h-15.5v17.8h18v-8.6z"/></g><path fill="#fff" d="M448.3 130h-7.9c.1-.2.2-.4.4-.6.4-.5 1.1-.7 2-.7 2.3 0 3.8-1.8 3.8-3.5 0-.8-.4-1.6-1-2.2-.7-.6-1.6-.9-2.8-.9v1.5c1.5 0 2.4.6 2.4 1.5 0 1-.9 2-2.3 2s-2.4.4-3.1 1.3c-.5.6-.7 1.2-.8 1.6h-1.8c-3.5 0-6.4 2.8-6.4 6.3v.2c0 3.5 2.8 6.3 6.4 6.3h11.2c3.5 0 6.4-2.8 6.4-6.3v-.2c-.2-3.4-3-6.3-6.5-6.3zm-8.6 7h-2v2h-1.1v-2h-2v-1h2v-2h1.1v2h2v1zm7.3-.8c-.9 0-1.6-.7-1.6-1.6 0-.9.7-1.6 1.6-1.6s1.6.7 1.6 1.6c0 .9-.7 1.6-1.6 1.6zm3 3.8c-.9 0-1.6-.7-1.6-1.6 0-.9.7-1.6 1.6-1.6s1.6.7 1.6 1.6c.1.9-.7 1.6-1.6 1.6zM329.1 124.1c2.4.2 4.4 1 6.3 2.8l-5.7 5.8c-1.7-2.1-1.7-5-.6-8.6zm-3.5 12.6l1-1-7.8-7.8c-.1.1-.2.1-.2.2-2.3 2.3-2.9 4.7-2.9 7.8 4.1-1.3 7.6-1.3 9.9.8zm3.3-3.2c-2-2.2-2.1-5.5-1-9.4-2.8-.1-5.9 1.1-8.2 3l7.8 7.8 1.4-1.4zm1.8-.3c2 1.8 5.2 1.8 8.8.6-.4-2.3-1.3-4.4-3.1-6.2l-5.7 5.6zm-4.7 14.6c1.4-3.9 1.5-7.3-.4-9.4l-6.2 6.2c1.9 2 4.1 2.9 6.6 3.2zm-1.3-10.2c-2.1-1.9-5.2-1.8-9-.5.2 2.5 1 4.7 2.8 6.7l6.2-6.2zm5-3.3l-1.4 1.4 8.3 8.3c2.1-2.5 3.2-5.7 3-8.8-4.1 1.3-7.6 1.1-9.9-.9zm-3.3 3.2c2.2 2.4 2.2 6.2.7 10.4 3.2.1 5.9-.4 8.4-2.9.1-.1.1-.2.2-.2l-8.3-8.3-1 1zM826.5 397v23.8h-17.8v-4.6h3v-2.3h-3v-10.7h2.9v-2.3h-2.9v-3.9h17.8zm-20.8 4.1v1.8h3v-1.8h-3zm0 13v1.8h2.9v-1.8h-2.9zm23.9-2h-1.9v4.8h1.9v-4.8zm0-6.1h-2v5h2v-5zm0-5.9h-1.9v4.9h1.9v-4.9zM716.4 362.2c.5-1.2-.6-2.5-1.3-3.4-.6-.8-1.7-2-2.6-2.1-.5-.1-1.2.4-1.8.8l4.7 5.9c.5-.3.8-.7 1-1.2zm-12.2-16.1c.1-.9-.8-2.2-1.4-3-.6-.8-1.6-2.2-3-2-.6.1-1 .3-1.5.6l4.7 5.9c.5-.5 1.1-1 1.2-1.5zm5.8 11.9c-.1.1-.2.1-.4.1-.6.2-1.9.2-2.6-.5-.7-.7-1.9-1.9-2.8-3.1-.9-1.2-1.8-2.6-2.3-3.5-.5-.9-.1-2.1.2-2.6l.2-.3-4.8-6c-.1.1-.2.2-.3.2-.9.8-2.2 2.6-1.2 5.9.8 2.5 2.4 5.4 4.6 8.3l.3.4.3.4c2.3 2.8 4.8 5.1 7 6.4 3 1.8 5.2 1 6.2.3l.3-.2-4.7-5.8zM665.4 354.3l-5.9-5.9v-3.9c0-.2-.2-.4-.4-.4h-1c-.2 0-.4.2-.4.4v1.8l-3.4-3c-.4-.4-1.1-.4-1.5 0l-10.8 11c-.4.4-.4 1.1 0 1.5.4.4 1.1.4 1.5 0l10.2-10.2 10.2 10.2c.2.2.5.3.8.3s.5-.1.8-.3c.3-.5.3-1.1-.1-1.5zm-19.6 1.5v8.8c0 .6.5 1.1 1 1.1h3.8v-5.7c0-.6.5-1.1 1-1.1h4c.6 0 1 .5 1 1.1v5.7h4c.6 0 1-.5 1-1.1v-8.8l-8-7.9-7.8 7.9zM826.8 68v2.1h-2.2v-2.1h-1.8v2.1h-2.2v-2.1h-1.7v2.1h-2.2v-2.1h-1.8v2.1h-2.2v-2.1h-1.8v2.1h-2.2v-2.1h-1.9v24h22v-24h-2zm-1.1 17.1h-16.2v-1.1h16.2v1.1zm0-2h-16.1v-1.1h16.1v1.1zm-.1-2h-16.1v-1.1h16.1v1.1z"/><g fill="#fff"><path d="M263.6 237.8c0 1.1-.8 2.1-1.8 2.1h-3.3c-1 0-1.8-.9-1.8-2.1v-2.7c0-1.1.8-2.1 1.8-2.1h3.3c1 0 1.8.9 1.8 2.1v2.7zM263.6 245.9c0 1.1-.8 2.1-1.8 2.1h-3.3c-1 0-1.8-.9-1.8-2.1v-2.7c0-1.1.8-2.1 1.8-2.1h3.3c1 0 1.8.9 1.8 2.1v2.7zM263.6 253.8c0 1.1-.8 2.1-1.8 2.1h-3.3c-1 0-1.8-.9-1.8-2.1v-2.7c0-1.1.8-2.1 1.8-2.1h3.3c1 0 1.8.9 1.8 2.1v2.7zM271.6 237.8c0 1.1-.8 2.1-1.8 2.1h-3.3c-1 0-1.8-.9-1.8-2.1v-2.7c0-1.1.8-2.1 1.8-2.1h3.3c1 0 1.8.9 1.8 2.1v2.7zM271.6 245.9c0 1.1-.8 2.1-1.8 2.1h-3.3c-1 0-1.8-.9-1.8-2.1v-2.7c0-1.1.8-2.1 1.8-2.1h3.3c1 0 1.8.9 1.8 2.1v2.7zM271.6 253.8c0 1.1-.8 2.1-1.8 2.1h-3.3c-1 0-1.8-.9-1.8-2.1v-2.7c0-1.1.8-2.1 1.8-2.1h3.3c1 0 1.8.9 1.8 2.1v2.7zM279.6 237.8c0 1.1-.8 2.1-1.8 2.1h-3.3c-1 0-1.8-.9-1.8-2.1v-2.7c0-1.1.8-2.1 1.8-2.1h3.3c1 0 1.8.9 1.8 2.1v2.7zM279.6 245.9c0 1.1-.8 2.1-1.8 2.1h-3.3c-1 0-1.8-.9-1.8-2.1v-2.7c0-1.1.8-2.1 1.8-2.1h3.3c1 0 1.8.9 1.8 2.1v2.7zM279.6 253.8c0 1.1-.8 2.1-1.8 2.1h-3.3c-1 0-1.8-.9-1.8-2.1v-2.7c0-1.1.8-2.1 1.8-2.1h3.3c1 0 1.8.9 1.8 2.1v2.7z"/></g><g fill="#fff"><path d="M811.5 180.1c0 1-.7 1.7-1.5 1.7h-2.8c-.8 0-1.5-.8-1.5-1.7v-2.2c0-1 .7-1.7 1.5-1.7h2.8c.8 0 1.5.8 1.5 1.7v2.2zM811.5 188.1c0 1-.7 1.8-1.5 1.8h-2.8c-.8 0-1.5-.8-1.5-1.8v-2.3c0-1 .7-1.8 1.5-1.8h2.8c.8 0 1.5.8 1.5 1.8v2.3zM819.6 180.1c0 1-.7 1.7-1.5 1.7h-2.8c-.8 0-1.5-.8-1.5-1.7v-2.2c0-1 .7-1.7 1.5-1.7h2.8c.8 0 1.5.8 1.5 1.7v2.2zM819.6 188.1c0 1-.7 1.8-1.5 1.8h-2.8c-.8 0-1.5-.8-1.5-1.8v-2.3c0-1 .7-1.8 1.5-1.8h2.8c.8 0 1.5.8 1.5 1.8v2.3zM819.6 196.2c0 1-.7 1.8-1.5 1.8h-2.8c-.8 0-1.5-.8-1.5-1.8v-2.3c0-1 .7-1.8 1.5-1.8h2.8c.8 0 1.5.8 1.5 1.8v2.3zM811.6 196.2c0 1-.7 1.8-1.5 1.8h-2.8c-.8 0-1.5-.8-1.5-1.8v-2.3c0-1 .7-1.8 1.5-1.8h2.8c.8 0 1.5.8 1.5 1.8v2.3zM829.6 179.1c0 1-.7 1.8-1.5 1.8h-2.8c-.8 0-1.5-.8-1.5-1.8v-2.3c0-1 .7-1.8 1.5-1.8h2.8c.8 0 1.5.8 1.5 1.8v2.3zM827.7 188.2c0 1-.7 1.8-1.5 1.8h-2.9c-.9 0-1.5-.8-1.5-1.8v-2.3c0-1 .7-1.8 1.5-1.8h2.9c.9 0 1.5.8 1.5 1.8v2.3zM827.5 196.2c0 1-.7 1.8-1.5 1.8h-2.8c-.8 0-1.5-.8-1.5-1.8v-2.3c0-1 .7-1.8 1.5-1.8h2.8c.8 0 1.5.8 1.5 1.8v2.3z"/></g><g fill="#fff"><path d="M276.6 186.9c0-5.6-4.7-9.4-10.1-9.8v-1.3c0-.4 0-.7-.4-.7s-.5.3-.5.7v1.3c-5.5.3-10 4.1-10 9.8h.9v-.9h2.1v.9h1.9v-.9h2.1v.9h1.9v-.9h3.1l.1.9h1.8v-.9h2.1v.9h1.9v-.9h2.2v.9h.9zM265.7 196.3c0 .7-.8 1.3-1.4 1.3-.4 0-1.3-.1-1.3-.8 0-.4-.3-.7-.7-.7-.4 0-.7.3-.7.7 0 1.5 1.2 2.2 2.6 2.2s2.3-1.2 2.3-2.7v-9.2h-.9l.1 9.2z"/></g><g fill="#fff"><path d="M553.8 363.4c0 .8-.7 1.4-1.5 1.4h-13c-.8 0-1.5-.6-1.5-1.4v-.8c0-.8.7-1.4 1.5-1.4h13c.8 0 1.5.6 1.5 1.4v.8zM552.4 359.9h-13.3l-3.2-10.9 1.7-1.1 4.5 6.4 2.7-9h2.1l2.4 9.5 4.7-6.9 1.6 1.1z"/><circle cx="556.1" cy="346.5" r="1.6"/><circle cx="545.8" cy="342.7" r="1.7"/><circle cx="535.4" cy="346.4" r="1.6"/></g><path fill="#fff" d="M606.2 343.9v-3.1h-14.8v3.1h-4v7.2c0 3.2 2.5 5.8 5.6 6.1 1 1.2 2.8 2.1 4.5 2.5v2.2c-1.5.5-3.4 1.5-3.6 2.8h9.9c-.2-1.4-2-2.3-3.5-2.8v-2.2c1.6-.4 3.3-1.3 4.4-2.5 3.1-.3 5.6-2.9 5.6-6.1v-7.2h-4.1zm-17 7.4v-5.6h2.1v6.8c0 1 .2 2 .6 2.9-1.6-.6-2.7-2.2-2.7-4.1zm12.3 1.7l-2.8-1.5-2.7 1.5.5-3.1-2.2-2.2 3.1-.4 1.4-2.8 1.4 2.8 3.1.4-2.3 2.3.5 3zm6.9-1.7c0 1.9-1.1 3.5-2.8 4.1.4-.9.6-1.9.6-2.9v-6.8h2.1v5.6z"/><g fill="#fff"><path d="M434.7 346.5v4.7h-2v1.7h2v5.2h-2v1.8h2v5h4.9v-18.4l-2.4-3.5zM426.7 346.5v4.7h-2v1.7h2v5.2h-2v1.8h2v5h4.9v-18.4l-2.4-3.5zM449.7 352.9v-1.8h-2.1v-4.6l-2.4-3.5-2.5 3.5v4.6h-2v1.8h2v5.1h-2v1.9h2v5h4.9v-5h2.1v-1.9h-2.1v-5.1z"/></g><path fill="#fff" d="M386.6 341c-5.6 0-10.1 4.5-10.1 10.1s7.5 13.9 10.1 13.9c2.6 0 10.1-8.4 10.1-13.9 0-5.6-4.5-10.1-10.1-10.1zm-2.4 15.5c-.4.4-1.8-.3-3.1-1.6s-2-2.7-1.6-3.1c.4-.4 1.8.3 3.1 1.6s2 2.7 1.6 3.1zm4.8 0c-.4-.4.3-1.8 1.6-3.1s2.7-2 3.1-1.6c.4.4-.3 1.8-1.6 3.1-1.3 1.2-2.7 2-3.1 1.6zM255.7 348v13h23.9v-13h-23.9zm16.9 1.8h2v2.2h-2v-2.2zm1.1 4.1v2.1h-2v-2.1h2zm-4.1-4.1h2.1v2.2h-2.1v-2.2zm1.1 4.1v2.2h-2.1v-2.2h2.1zm-4.1-4.1h2v2.2h-2v-2.2zm.1 4.1v2.2h-2v-2.2h2zm-3.1-4.1h2.2v2.2h-2.2v-2.2zm.1 4.1v2.1h-2.2v-2.1h2.2zm-3.1-4.1h2.1v2.2h-2.1v-2.2zm-3 0h2.1v2.2h-2.1v-2.2zm3.1 6.3h-2.1v-2.2h2.1v2.2zm14 3h-14.1v-2.1h14.1v2.1zm2-3.1h-2v-2.2h2v2.2zm1-4h-2.1v-2.2h2.1v2.2zM762.9 69.3c-2.1 0-3.8 1.7-3.8 3.8 0 .5.1 1 .3 1.5l-4.9 4.1-4.7-4.1c.2-.5.4-1.1.4-1.6 0-2.1-1.7-3.8-3.8-3.8-2.1 0-3.8 1.7-3.8 3.8 0 2.1 1.7 3.8 3.8 3.8.7 0 1.4-.2 2-.6l-.1.1 5.4 4.5v5.1c-1.5.5-2.9 1.9-2.9 3.6 0 2.1 1.7 3.8 3.8 3.8 2.1 0 3.8-1.7 3.8-3.8 0-1.7-1.1-3.1-2.7-3.6v-5.2l5.2-4.3c.6.4 1.3.6 2.1.6 2.1 0 3.8-1.7 3.8-3.8-.1-2.3-1.8-3.9-3.9-3.9zm-16.5 5.5c-1.1 0-2-.9-2-2s.9-2 2-2 2 .9 2 2-.9 2-2 2zm10.2 14.4c0 1.1-.9 2.1-2.1 2.1s-2.1-.9-2.1-2.1c0-1 .7-1.8 1.5-2h1.1c1 .3 1.6 1.1 1.6 2zm6.3-14.1c-1.1 0-2.1-.9-2.1-2.1 0-1.1.9-2.1 2.1-2.1 1.1 0 2.1.9 2.1 2.1 0 1.2-.9 2.1-2.1 2.1z"/><g fill="#fff"><path d="M705.7 93c-6.6 0-12-5.4-12-12s5.4-12 12-12 12 5.4 12 12-5.4 12-12 12zm0-21.3c-5.1 0-9.3 4.2-9.3 9.3 0 5.1 4.2 9.3 9.3 9.3s9.3-4.2 9.3-9.3c0-5.1-4.2-9.3-9.3-9.3zM706.5 85.4v-6.3c0-.5-.4-1-.8-1s-.8.4-.8 1v6.3c-.6.3-1.1.9-1.1 1.7 0 1 .8 1.9 1.9 1.9 1 0 1.9-.8 1.9-1.9-.1-.8-.5-1.4-1.1-1.7zM704.8 73.1h1.8v2.9h-1.8zM702.494 77.198l-.57.562-2.036-2.065.57-.562zM708.8 77.2l.6.6 2.1-2-.6-.7zM708.586 75.696l-.713-.363.862-1.693.713.363zM703.651 75.502l-.741.301-.752-1.853.741-.301z"/></g><g fill="#fff"><path d="M664.6 74.6c1.4-1.4 1.2-3.7-.3-5.3-1.6-1.6-3.9-1.7-5.3-.3l-1.8 1.8 5.6 5.6 1.8-1.8zM649.8 89.3l9.5-9.5 1.2 1.2 2.4-2.4-7.9-7.9-2.4 2.4 1.2 1.2-9.5 9.5-2.5 7 1.1 1.1 6.9-2.6zm5.5-13.5l2.4 2.4-9.7 9.7-3.9 1.4 1.4-3.9 9.8-9.6z"/></g><g fill="#fff"><path d="M609.9 86.1h-22.5c-.4 0-.7.4-.7 1 0 .5.3 1 .7 1h22.5c.4 0 .7-.4.7-1 .1-.6-.3-1-.7-1zM598.7 75c-5.5 0-10 4.4-10 9.9h20c0-5.5-4.5-9.9-10-9.9z"/></g><circle fill="#fff" cx="598.7" cy="74" r="1"/><path fill="#fff" d="M558.7 83.8h-4.9l-.6-4.1-.8 4.1h-4.9l-1.9 9.1-1.7-9.1h-3.1l-1.2-5.9-1 5.9h-3.9v-1.8h3l1.9-10 2 10h3l1 6.1 1.3-6.1h4.8l1.5-7.1 1.3 7.1h4.2zM503.6 89.1l-2.8-13.5-3 13.5-4.2-.1-3.3-17-3.4 17.1h-4.2v1.9h5.9l1.7-9.3 1.6 9.3h7.7l1.2-6.9 1.2 6.9h4.7v-1.9z"/><g fill="#fff"><path d="M444.7 70.1v3.4c2.9 1.1 4.7 4 4.7 7.3 0 4.3-3.5 7.8-7.7 7.8-4.3 0-7.7-3.5-7.7-7.8 0-3.3 1.7-6.1 4.6-7.2v-3.4c-4.7 1.3-7.8 5.5-7.8 10.6 0 6.1 4.9 11 11 11s11-4.9 11-11c-.1-5-3.4-9.4-8.1-10.7zM443.6 79.2c0 1-.9 1.8-1.9 1.8-1.1 0-1.9-.8-1.9-1.8v-9.3c0-1 .9-1.8 1.9-1.8 1.1 0 1.9.8 1.9 1.8v9.3z"/></g><g fill="#fff"><path d="M489.7 341.1c-1.4 0-2.6-.8-3.1-2l-.9.1c.6 1.6 2.1 2.8 4 2.8 1.8 0 3.4-1.2 4-2.8-.3-.1-.6-.1-.9-.1-.6 1.1-1.8 2-3.1 2zM495 339c-.6 2-2.8 4.1-5.4 4.1s-4.7-2.1-5.4-4.1c-4.2 1.1-5.6 5.3-5.6 9.9v.9h4.1v12h13.8v-12h5.1v-.9c.1-4.5-2.3-8.8-6.6-9.9zM478.7 351.1h3v1.8h-3zM497.7 351.1h3.9v1.8h-3.9z"/></g><g fill="#fff"><path d="M319.9 186.5h.4l.9-1.1c-.1-.2-.1-.4-.1-.6 0-.9.7-1.6 1.6-1.6.2 0 .3 0 .5.1l1.2-1.2c-.1-.2-.1-.3-.1-.5 0-.9.7-1.6 1.6-1.6.3 0 .5.1.7.2 2.8-2.3 5.9-4.3 9.2-5.8-2.8-.7-11 .1-16.4 5.6-5.7 5.7-6.5 14.3-5.5 16.9 1.2-2.7 2.7-5.4 4.4-7.8-.1-.2-.2-.5-.2-.8.1-1.1.9-1.8 1.8-1.8zM326.2 183.2c-.3 0-.6-.1-.8-.2-.4.3-.7.7-1 1 .2.3.3.6.3.9 0 .9-.7 1.6-1.6 1.6-.3 0-.5-.1-.8-.2l-.7.9c.2.3.3.6.3 1 0 .9-.7 1.6-1.6 1.6-.2 0-.4 0-.6-.1-1.7 2.5-3.2 5.1-4.4 7.9 2.5 1.1 11 .2 16.7-5.5 5.8-5.8 6.3-14.8 5.4-17.1-3.5 1.6-6.6 3.6-9.5 5.9.1.2.1.4.1.6-.2 1-.9 1.7-1.8 1.7z"/></g><g fill="#fff"><path d="M485.7 174.2v4.6h19v-4.6h-19zm2.4 3.3c-.6 0-1.1-.5-1.1-1s.5-1 1.1-1c.6 0 1.1.5 1.1 1s-.5 1-1.1 1zm3.9-.1c-.5 0-1-.4-1-.9s.4-.9 1-.9c.5 0 1 .4 1 .9s-.5.9-1 .9zM485.7 198h19v-17.8h-19v17.8zm9.5-14.1c3.1 0 5.6 2.5 5.6 5.6 0 3.1-2.5 5.6-5.6 5.6s-5.6-2.5-5.6-5.6c0-3.1 2.5-5.6 5.6-5.6zM495.2 194c2.5 0 4.5-2 4.5-4.5s-2-4.5-4.5-4.5-4.5 2-4.5 4.5 2 4.5 4.5 4.5zm0-8c1.8 0 3.3 1.3 3.5 3.1h-.2c-.3 0-.5.2-.5.5s.2.5.5.5h.2c-.2 1.7-2.2-.9-4-.9-2 0-3.1 2.4-3.1.4s1.6-3.6 3.6-3.6z"/></g><g fill="#fff"><path d="M534.7 180.8h19v-4.6h-19v4.6zm16.5-3.2c.5 0 .9.4.9.9s-.4.9-.9.9-.9-.4-.9-.9.4-.9.9-.9zm-3 .1c.4 0 .8.4.8.8s-.4.8-.8.8-.8-.4-.8-.8.3-.8.8-.8zm-3-.2c.4 0 .8.4.8 1s-.4 1-.8 1-.8-.4-.8-1 .3-1 .8-1zM554.9 176.2h3.8v4.6h-3.8zM554.9 182.2h3.8v15.8h-3.8zM534.7 198h19v-15.8h-19v15.8zm4.8-13.2h10.3v1.4h-10.3v-1.4zm-2 3.2h14.4v7.1h-14.4v-7.1z"/></g><g fill="#fff"><path d="M610.8 182.6l-12 5.7-12-5.7v-3.9l12 5.7 12-5.7zM610.8 191.2l-12 5.7-12-5.7v-3.9l12 5.7 12-5.7z"/></g><path fill="#fff" d="M659.8 176h-14.2c-1.6 0-2.9 1.7-2.9 3.7v8.3c0 2 1.3 3.7 2.9 3.7h8.8l-3.3 8.2 7.7-8.2h.9c1.6 0 2.9-1.7 2.9-3.7v-8.3c.1-2-1.2-3.7-2.8-3.7zm-12.8 9.9c-1.1 0-1.9-.9-1.9-2s.9-2 1.9-2c1.1 0 1.9.9 1.9 2s-.8 2-1.9 2zm5.7 0c-1.1 0-1.9-.9-1.9-2s.9-2 1.9-2c1.1 0 1.9.9 1.9 2s-.8 2-1.9 2zm5.7 0c-1.1 0-1.9-.9-1.9-2s.9-2 1.9-2c1.1 0 1.9.9 1.9 2 .1 1.1-.8 2-1.9 2z"/><g fill="#fff"><path d="M706.5 176.2v-.3c0-1-.8-1.8-1.8-1.8s-1.8.8-1.8 1.8v.3c-3.9 1.5-6.9 4.4-6.9 11.8h17.4c0-7.4-2.9-10.3-6.9-11.8zM714.7 193.9h-20l1.3-3.8h17.4zM704.7 198c1.6 0 2.9-1.3 2.9-2.9h-5.9c0 1.6 1.3 2.9 3 2.9z"/></g><g fill="#fff"><path d="M323.5 247.1l-3.5-13h-5.1v1.8h3.6l3.5 13h16.7v-1.8zM324.8 243.1h3.9v2.7h-3.9zM329.8 243.1h3.9v2.7h-3.9zM334.8 243.1h3.9v2.7h-3.9zM324.8 239.1h3.9v2.7h-3.9zM329.8 239.1h3.9v2.7h-3.9zM334.8 239.1h3.9v2.7h-3.9zM324.8 235.1h3.9v2.7h-3.9zM329.8 235.1h3.9v2.7h-3.9zM334.8 235.1h3.9v2.7h-3.9z"/><circle cx="324.2" cy="251.5" r="1.5"/><circle cx="336.2" cy="251.5" r="1.5"/></g><g fill="#fff"><path d="M653.6 240.6v-2.6h3.1c.5 0 .9.4.9.9v2.7s1.2.3 1.9.6v-4.2c0-1.1-.9-2.1-2.1-2.1h-8.8c-1.1 0-2.1.9-2.1 2.1v4.2c.8-.3 2-.7 2-.7v-2.7c0-.5.4-.9.9-.9h3.1v2.7c.6-.1.8-.1 1.1 0zM645.9 253.2c.7 0 1.1.6 1.3.7.1.1.3.3.5.3.1 0 .2-.1.4-.2.4-.5.9-.8 1.4-.8.8 0 1.4.5 1.6.8.4.4.5.4.6.4.1 0 .2-.1.3-.3 0 0 0-.1.1-.1 0 0 .2-.2.5-.4v-11.4s-.2 0-.6.1c-.7.1-1.9.4-3.2.8-.8.2-1.6.5-2.3.7-1.7.6-3.3 1.4-3.6 2.3-.7 1.7.5 4.8 1.8 7.6.5-.4.9-.5 1.2-.5zM655.6 253.9c.2.2.4.3.5.3.1 0 .3-.2.4-.3 0 0 0-.1.1-.1.1-.1.7-.7 1.5-.7.3 0 .9.1 1.3.7.2.2.4.4.5.4.2 0 .6-.3.7-.4.3-.3.7-.6 1.3-.7 1.3-2.7 2.3-5.5 1.6-7.1-.3-.9-1.9-1.6-3.6-2.3-.8-.3-1.6-.5-2.3-.7-1.3-.4-2.5-.6-3.2-.8-.4-.1-.6-.1-.6-.1v11.1c.1 0 .2 0 .4-.1.3.1.9.2 1.4.8zM662.6 255.5c-.4-.5-.8-.8-1.3-.9h-.3c-.5.1-.9.4-1.2.7-.1.1-.5.5-.7.5-.1 0-.3-.2-.5-.4-.4-.6-.9-.7-1.3-.7-.8 0-1.4.6-1.5.7 0 0 0 .1-.1.1-.1.1-.2.3-.3.3-.1 0-.3-.1-.5-.3-.5-.6-1.1-.8-1.5-.8-.1 0-.2 0-.3.1l-.6.3c-.3.2-.4.4-.5.5 0 0 0 .1-.1.1-.1.2-.3.3-.3.3-.1 0-.2 0-.6-.4-.3-.3-.8-.9-1.6-.8-.5 0-1 .3-1.4.9-.1.2-.3.3-.4.3-.2 0-.4-.2-.5-.3-.1-.2-.6-.7-1.2-.8-.3 0-.7 0-1.1.4-.1.1-.3.2-.4.4-.1.2-.3.3-.5.3s-.4-.2-.5-.3c-.2-.3-.6-.3-.8-.1-.3.2-.3.6-.1.8.1.1.6.8 1.4.8.4 0 .9-.1 1.5-.8.2-.2.3-.3.4-.3.1 0 .3.2.3.3 0 0 0 .1.1.1.1.1.7.7 1.5.7.3 0 .8-.1 1.3-.7.2-.2.4-.4.5-.4.2 0 .5.3.7.5.4.4.8.8 1.4.8h.1c.3 0 .5-.1.8-.3.2-.1.3-.3.5-.5 0 0 0-.1.1-.1.1-.1.2-.2.4-.2s.4.2.5.3c.6.7 1.1.8 1.5.8.7-.1 1.1-.6 1.2-.8.1-.1.3-.3.5-.3.1 0 .2.1.4.3.4.5.9.8 1.4.9.3 0 .7-.1.9-.2.3-.2.5-.4.7-.6.4-.4.5-.4.6-.4.1 0 .2.1.4.4.2.3.6.3.8.2.3-.8.4-1.1.2-1.4zM650.7 233h1.9v2.9h-1.9zM653.7 233h1.9v3h-1.9z"/></g><g fill="#fff"><path d="M648.8 144.2c4.4 0 7.9.6 7.9 1.4s-3.6 1.4-7.9 1.4-8.9-.6-8.9-1.4 4.6-1.4 8.9-1.4zM647.9 123.1h1.7v19.8h-1.7zM650.8 123.1s2.4-.6 6.5 2.3 3.3 5.4 6 5.6c1.5-.1-.6 1.8-2.7.9-4-1.7-5.2-4.1-9.7-1.9l-.1-6.9z"/><circle cx="661.7" cy="144.1" r="2.9"/></g><g fill="#fff"><path d="M691.8 133.1v1h-1.9v7.8h1.9v1.1h2.9v-9.9zM715.7 134.1h-2v-1.1h-2.9v10h2.9v-1h2zM695.7 137h14v1.9h-14z"/></g><g fill="#fff"><path d="M391.1 78.6l-4.3 4.3 5.9 9.2c.2.2.5.3.8.3.3 0 .6-.1.8-.3.7-.9-1-7.3-3.2-13.5zM382.7 90.2c-.1-.9-.5-3.8-.5-3.8l4.4-4.6 4.3-4.3 6.1-6.1c.8-.8 1-1.8.1-2.7-.9-.9-2-.8-2.8 0l-6.2 6.2c-3.7-1.2-10.4-3.5-13-3.5-.4 0-.5 0-.6.1-.4.4-.4 1.1 0 1.5l9.3 6.1-4.6 4.6s-3.6-.7-4.1-.8c-.7-.1-1.6.5 0 1.3l4 2s1.3 2.6 2.1 4c1 1.7 1.6.8 1.5 0z"/></g><g fill="#fff"><path d="M821.7 136.9h2.9v-.8h-2.9v-3h-1v3h-5.1v-3h-.9v3h-4.1v-3h-.8v3h-3.1v.8h3.1v3.1h-3.1v1h3.1v2h.8v-2h4.1v2h.9v-2h5.1v2h1v-2h3v-1h-3v-3.1zm-11.2 3.1v-3.1h4.1v3.1h-4.1zm5.1 0v-3.1h5.1v3.1h-5.1zM825.4 127.1h-1.6v1.9c0 .1-.1.3-.3.3h-.8c-.1 0-.3-.1-.3-.3v-1.9h-13.6v1.9c0 .1-.1.3-.3.3h-.8c-.1 0-.3-.1-.3-.3v-1.9h-1.6c-1.2 0-2.2 1-2.2 2.3v14.3c0 1.2 1 2.3 2.2 2.3h19.5c1.2 0 2.2-1 2.2-2.3v-14.3c.2-1.3-.8-2.3-2.1-2.3zm.3 15.1c0 1.1-.8 1.9-1.9 1.9h-16.3c-1 0-1.9-.9-1.9-1.9v-8.4c0-1.1.8-1.9 1.9-1.9h16.3c1 0 1.9.9 1.9 1.9v8.4zM808.6 125.4c0-.2-.1-.3-.2-.3h-.6c-.1 0-.2.2-.2.3v1.5h.9l.1-1.5zM823.6 125.4c0-.2-.1-.4-.2-.4h-.5c-.1 0-.2.2-.2.4v1.6h.8v-1.6z"/></g><g fill="#fff"><ellipse cx="703.6" cy="241" rx="2.9" ry="3"/><path d="M709.2 250c-1.5 1.1-3.4 1.8-5.5 1.8-2 0-3.9-.7-5.4-1.8l-3.4 3.4c-.4.4-.4 1.2 0 1.6l17.6-.1c.4-.4.4-1.2 0-1.6l-3.3-3.3zM706.1 232.3v.1c0 1-1.1 1.8-2.4 1.8-1.3 0-2.4-.8-2.4-1.8v-.1c-3.8 1-6.6 4.5-6.6 8.6 0 4.9 4 8.9 9 8.9s9-4 9-8.9c0-4.1-2.8-7.6-6.6-8.6zm-2.5 13.8c-2.8 0-5.1-2.3-5.1-5.1s2.3-5.1 5.1-5.1 5.1 2.3 5.1 5.1-2.3 5.1-5.1 5.1zM704.9 232c-.1-.5-.6-.9-1.2-.9s-1.2.4-1.2.9v.1c0 .6.5 1 1.2 1s1.2-.4 1.2-1.1z"/></g><g fill="#fff"><path d="M431.8 248.1h9.7v4.8h-9.7zM430.7 235.1h11.8v3.9h-11.8zM424.7 240.1v9.8h5.8v-2.9h12.3v2.9h5.7v-9.8h-23.8zm2.8 4.4c-.7 0-1.3-.6-1.3-1.4 0-.8.6-1.4 1.3-1.4.7 0 1.3.6 1.3 1.4 0 .8-.6 1.4-1.3 1.4zm4 .1c-.8 0-1.4-.6-1.4-1.4s.6-1.4 1.4-1.4c.8 0 1.4.6 1.4 1.4s-.6 1.4-1.4 1.4z"/></g><path fill="#fff" d="M375.7 243v6h21v-6h-21zm3 4.6c-.8 0-1.5-.7-1.5-1.6s.7-1.5 1.5-1.5 1.5.7 1.5 1.5c0 .9-.7 1.6-1.5 1.6zm4-.2c-.9 0-1.5-.7-1.5-1.5s.7-1.5 1.5-1.5c.9 0 1.5.7 1.5 1.5 0 .9-.7 1.5-1.5 1.5z"/><g fill="#fff"><path d="M392.6 236.1h-6v-6.1h-6v10.9h12v-4.8zm-2.7 4.1h-6.3v-1.2h6.3v1.2zm-6.3-2.1v-1.3h6.3v1.3h-6.3zM387.8 230v4.9h4.8z"/></g><path fill="#fff" d="M380.7 250.1h.9v4.9h-.9zM382.7 250.1h.9v4.9h-.9zM384.7 250.1h.9v4.9h-.9zM386.7 250.1h.9v4.9h-.9zM388.7 250.1h.9v4.9h-.9zM390.7 250.1h.9v4.9h-.9zM485.7 228.1h1l1 7.9h-1zM498.7 238v15h4.9v-15h-4.9zm2.5 6.5c-.5 0-.9-.4-.9-1s.4-1 .9-1 .9.4.9 1-.4 1-.9 1zm0-3c-.5 0-1-.4-1-1s.4-1 1-1c.5 0 1 .4 1 1s-.5 1-1 1z"/><g fill="#fff"><path d="M592.5 143.2l-2.4 2.4c-.4.4-.4 1 0 1.3l14.8-.1c.4-.4.4-1 0-1.3l-2.3-2.3c-1.4.8-3.1 1.3-5 1.3-2 0-3.7-.5-5.1-1.3zM607.6 132h-1.9v-2h-1.8v6.2c0 2.8-3 5-6.7 5s-6.7-2.2-6.7-5v-6.2h-1.8v2h-2v.9h2v3.9c0 3.3 4 6 8.4 6s8.5-2.7 8.5-6v-3.8h1.9v-1zM592.8 131.1h8.7v2.7h-8.7zM592.8 136.7c0 1.7 2 3.1 4.4 3.1 2.4 0 4.4-1.4 4.4-3.1v-1.5h-8.7l-.1 1.5zM601.5 126.5c0-1.9-2-3.4-4.4-3.4-2.4 0-4.4 1.5-4.4 3.4v3.5h8.7l.1-3.5z"/></g><g fill="#fff"><path d="M267.7 288l.6 1.8h1.9l-1.5 1.2.6 1.8-1.6-1.2-1.5 1.2.6-1.8-1.6-1.2h1.9zM272.8 306.2l2.8.6-4.8-6.6 3.1.6-6.2-7.8-6.2 7.8 3.1-.6-4.8 6.6 2.8-.6-4.5 5.7h19.3l-4.6-5.7zm-8.3 3.1c-.7 0-1.2-.6-1.2-1.2 0-.7.6-1.2 1.2-1.2.7 0 1.2.6 1.2 1.2s-.5 1.2-1.2 1.2zm3.2-5.4c-.7 0-1.2-.5-1.2-1.2s.5-1.2 1.2-1.2 1.2.5 1.2 1.2c0 .6-.5 1.2-1.2 1.2zm0-5.8c-.7 0-1.2-.5-1.2-1.2s.5-1.2 1.2-1.2 1.2.5 1.2 1.2-.5 1.2-1.2 1.2zm3.3 11.3c-.8 0-1.4-.6-1.4-1.4 0-.8.6-1.4 1.4-1.4.8 0 1.4.6 1.4 1.4-.1.8-.7 1.4-1.4 1.4z"/><ellipse cx="276.7" cy="307.9" rx="1" ry=".9"/><ellipse cx="258.6" cy="307.9" rx="1" ry=".9"/><ellipse cx="260.7" cy="301.9" rx=".9" ry=".9"/><ellipse cx="274.7" cy="301.9" rx=".9" ry="1"/></g><path fill="#fff" d="M547 136c0 .4-.3.6-.7.6-.3 0-.5-.2-.6-.4l-.1-.3c0-.4.3-.6.7-.6.3 0 .6.2.7.5v.2zm-2.3 1.7c0-.1-.1-.3-.3-.3l-.2-.1c-.3 0-.5.2-.5.5v.2c.1.2.3.3.5.3.3 0 .5-.2.5-.5.1-.1.1-.1 0-.1zm1.6-3.2c.7 0 1.4.5 1.5 1.2 2.3-.4 4.9.3 4.9.3-.8-2.2-3.8-2.2-3.8-2.2-.2-1.5 3.8-3.8 3.8-3.8-3.1-1.1-5.9 1.4-5.9 1.4-.5-2 2.4-5.4 2.4-5.4-4.2.3-5.3 4.9-5.3 4.9-1.9-1.9-7.1-1.7-7.1-1.7 2.2.2 4.1 3.8 4.1 3.8-5.2 1.8-4 5.8-4 5.8 1.3-1 2.2-1.5 3-1.8.2-.5.7-.9 1.2-.9.6 0 1.2.4 1.3 1v.3c0 .5-.3 1-.8 1.2-1.2 7.9 2 11.6 2 11.6h5.2c-3.6-3.7-4.4-8.3-4.5-11h-.1c-.5 0-1-.3-1.2-.7-.1-.2-.1-.3-.1-.5 0-.7.6-1.3 1.3-1.3l.6.1c-.1-.2-.1-.4-.1-.6 0-1 .7-1.7 1.6-1.7zm-4.6 2.7c-.1-.2-.3-.4-.6-.4s-.5.2-.5.4v.2c0 .1 0 .2.1.2.1.2.3.3.5.3h.2c.2-.1.4-.3.4-.5l-.1-.2z"/><g fill="#fff"><path d="M333 291.7c-1.5-2.8-4-4.7-6.9-4.7-2.8 0-5.3 1.8-6.8 4.5 2.1.9 4.5 1.4 7 1.4 2.4 0 4.7-.4 6.7-1.2zM317.9 303.3c.8 5.1 4.2 7.7 8.3 7.7 4 0 7.3-2.5 8.2-7.4-2.4 1.2-5.3 2.1-8.2 2.1-3.1 0-5.8-1-8.3-2.4zM320.6 298.7c1 0 2-.4 2.7-1.1l.2-.2.2.2c.7.7 1.7 1.1 2.7 1.1 1 0 1.9-.4 2.6-1l.2-.2.2.2c.7.7 1.6 1 2.6 1 .9 0 1.7-.3 2.4-.8-.2-1.8-.6-3.4-1.3-4.8-2.1.9-4.4 1.4-6.9 1.4-2.6 0-5-.5-7.3-1.5-.6 1.4-1.1 2.9-1.3 4.6l.1.1c.9.6 1.9 1 2.9 1zm11.5-4.5l1.5 1.3-1.5 1.3-1.5-1.3 1.5-1.3zm-5.9.9l1.5 1.3-1.5 1.3-1.5-1.3 1.5-1.3zm-6-.9l1.5 1.3-1.5 1.3-1.5-1.3 1.5-1.3zM334.6 299.4c-.7.4-1.5.7-2.4.7-1.1 0-2.1-.4-2.8-1-.8.5-1.8 1-2.8 1-1.1 0-2.1-.4-2.9-1-.8.6-1.8 1-2.9 1-1.1 0-2.1-.4-2.9-1 0 .4-.1.8-.1 1.3 0 .6 0 1.1.1 1.6 2.5 1.2 5.2 2 8.4 2 2.9 0 5.9-.8 8.3-1.8.1-.6.1-1.2.1-1.8-.1-.4-.1-.7-.1-1zm-11.4 3.1c-.7 0-1.3-.4-1.3-1 0-.5.6-1 1.3-1s1.3.4 1.3 1c0 .5-.6 1-1.3 1zm6 0c-.7 0-1.3-.4-1.3-1 0-.5.6-1 1.3-1s1.3.4 1.3 1c0 .5-.6 1-1.3 1z"/></g><g fill="#fff"><path d="M374.7 292.1h23.8v4.9h-23.8zM390.6 298.1l2.7 2.6c.5.4.5 1.1 0 1.6-.4.4-1.2.4-1.6 0l-4.4-4.1h-1.4l-4.4 4.1c-.5.4-1.2.4-1.6 0-.5-.4-.5-1.1 0-1.6l2.7-2.6h-6v11.9h19.9v-11.9h-5.9zM393.9 287.8c-.5-.5-1.1-.8-1.8-.8-1.4 0-3.3 1.1-4.9 2.9-1.7-1.8-3.5-2.9-4.9-2.9-.7 0-1.4.3-1.8.8-.7.9-.9 2.3-.4 3.9l.1.3h2.4l-.3-.7-.1-.2c0-.1 0-.1-.1-.2-.3-.9-.2-1.4-.1-1.4 0 0 .1-.1.3-.1.7 0 2.1.7 3.6 2.4l.1.1h2.5l.1-.1c1.4-1.6 2.8-2.4 3.6-2.4.2 0 .3.1.3.1.1.1.1.5-.1 1.4 0 .1 0 .1-.1.2l-.1.2-.3.7h2.4l.1-.3c.3-1.6.2-3-.5-3.9z"/></g><path fill="#fff" d="M444.7 289h-14.2c-1.6 0-2.9 1.7-2.9 3.7v8.5c0 2 1.3 3.7 2.9 3.7h8.7l-3.2 8 7.7-8h1c1.6 0 2.9-1.7 2.9-3.7v-8.5c-.1-2-1.3-3.7-2.9-3.7zm-12.1 4.9h10.1v1.2h-10.1v-1.2zm11.1 7.2h-12.2v-1.2h12.2v1.2zm1-3h-14.1v-1.2h14.1v1.2z"/><g fill="#fff"><path d="M482.7 286h5.8v1.9h-5.8zM482.7 308.1h5.8v1.9h-5.8zM482.7 306.8h5.8v-17.6h-5.8v17.6zm2.9-.8c-1.1 0-2-.9-2-2s.9-2 2-2 2 .9 2 2c-.1 1.1-.9 2-2 2zm-2.1-15.1h4.1v1.2h-4.1v-1.2zm0 3h4.1v1.2h-4.1v-1.2zM489.7 286h5.8v1.9h-5.8zM489.7 308.1h5.8v1.9h-5.8zM489.7 306.8h5.8v-17.6h-5.8v17.6zm2.9-.8c-1.1 0-2-.9-2-2s.9-2 2-2 2 .9 2 2c-.1 1.1-.9 2-2 2zm-2.1-15.1h4.1v1.2h-4.1v-1.2zm0 3h4.1v1.2h-4.1v-1.2zM496.7 286h5.8v1.9h-5.8zM496.7 308.1h5.8v1.9h-5.8zM496.7 306.8h5.8v-17.6h-5.8v17.6zm2.9-.8c-1.1 0-2-.9-2-2s.9-2 2-2 2 .9 2 2c-.1 1.1-.9 2-2 2zm-2.1-15.1h4.1v1.2h-4.1v-1.2zm0 3h4.1v1.2h-4.1v-1.2z"/></g><path fill="#fff" d="M608.6 291.1h-19.7c-1.2 0-2.2 1-2.2 2.2v12.6c0 1.2 1 2.2 2.2 2.2h19.7c1.2 0 2.2-1 2.2-2.2v-12.6c0-1.2-1-2.2-2.2-2.2zm-5.7 10h-3v3h-2.2v-3h-3v-2.1h3v-3h2.2v3h3v2.1zM595.8 289.6c0-.7.5-1.2 1.2-1.2h3.8c.6 0 1.2.5 1.2 1.2v1.4h1.7v-1.8c0-1.1-.9-2.1-2-2.1h-5.7c-1.1 0-2 .9-2 2.1v1.8h1.8v-1.4z"/><g fill="#fff"><path d="M644.9 292h15.5v17h-15.5zM662.5 292h-.6v17h.6c1.2 0 2.2-1 2.2-2.2v-12.6c0-1.2-1-2.2-2.2-2.2zM639.7 294.2v12.6c0 1.2 2 2.2 3.2 2.2h.6v-17h-.6c-1.3 0-3.2 1-3.2 2.2zM649.6 290.1c0-.6.6-1.1 1.3-1.1h3.5c.7 0 1.3.5 1.3 1.1v.9h1.9v-2c0-1.1-1-2-2.3-2h-5.4c-1.2 0-2.3.9-2.3 2v1.9h1.9l.1-.8z"/></g><g fill="#fff"><path d="M700.6 290c0-.6.5-1.1 1.1-1.1h3.8c.6 0 1.2.5 1.2 1.1v.9h1.9v-1.5c0-1.4-1.1-2.5-2.5-2.5h-5.1c-1.4 0-2.4 1.1-2.4 2.5v1.5h1.9l.1-.9zM705.7 295.9v2h10v-5.8h-23.9v5.8h9.7v-2zM701.5 301.1v-2h-9.7v10.9h23.9v-10.9h-10v2zM702.7 297h1.9v2.9h-1.9z"/></g><g fill="#fff"><path d="M809 292.2c-1.2 0-2.2 1.1-2.2 2.4v4c0 1.3 1 2.4 2.2 2.4h9.5v-8.8h-9.5zM818.5 312h-4.5l-3-9.9h4.6zM826.5 288l-6.6 4.2v8.9l6.6 4.2zM827.7 294v4.8c1.1 0 2-1.1 2-2.4 0-1.3-.9-2.4-2-2.4z"/></g><g fill="#fff"><path d="M655.6 19h-1v1.2h-2v-1.2h-1c-3.9 0-7 3.1-7 7v1h1.1v2h-1.1v1c0 3.9 3.1 7 7 7h1v-1.1h2v1.1h1c3.9 0 7-3.1 7-7v-1h-1.1v-2h1.1v-1c0-3.8-3.1-7-7-7zm-1.9 16.1c-3.9 0-7.1-3.2-7.1-7.1s3.2-7.1 7.1-7.1 7.1 3.2 7.1 7.1-3.2 7.1-7.1 7.1zM653.7 16c-6.6 0-12 5.4-12 12s5.4 12 12 12 12-5.4 12-12-5.4-12-12-12zm2 22.2h-1v1h-2.1v-1h-1c-4.5 0-8.1-3.6-8.1-8.1v-1h-1v-2.1h1v-1c0-4.5 3.6-8.1 8.1-8.1h1v-1.1h2.1v1.1h1c4.5 0 8.1 3.6 8.1 8.1v1h1.1v2h-1.1v1c0 4.5-3.6 8.2-8.1 8.2z"/></g><path fill="#fff" d="M324.1 32c-2.5 0-4.5-2-4.5-4.5s2-4.5 4.5-4.5 4.5 2 4.5 4.5-2 4.5-4.5 4.5zm0-7.4c-1.6 0-2.8 1.3-2.8 2.9 0 1.6 1.3 2.9 2.8 2.9 1.6 0 2.8-1.3 2.8-2.9.1-1.6-1.2-2.9-2.8-2.9zm2.6 13.4h-4.9v3h4.9v-3zm-.1-4h-4.9v3h4.9v-3zm-8-14.8l-3 4.4 1.8 1.2 3-4.4-1.8-1.2zm-2.9-2l-3 4.4 1.8 1.2 3-4.4-1.8-1.2zm20.9 4.5l-3.1-4.7-4.8 3.2 3.1 4.7 4.8-3.2zM382.5 29.9h-1.8v-12.8h1.8v12.8zm0 5.2h-1.8v5.8h1.8v-5.8zm1.1-1.2v-2.9h-4v2.9h4zm6-4.9v-2.8h-3.9v2.8h3.9zm5.9 4v-3h-3.8v3h3.8zm-6.9-15.9h-1.9v7.8h1.9v-7.8zm0 12.9h-1.8v10.9h1.8v-10.9zm6-12.9h-1.9v11.9h1.9v-11.9zm0 17h-1.9v6.7h1.9v-6.7zM441.8 23.5l-8 3.3-4-1.8 7-3 5 1.5zm11.9 1.3l-7-3.8-3.9 2.4 7.4 3.5 3.5-2.1zm-14.8 10.4l-5.2-2.4v1.7l7.9 3.4v-5.3l-2.7 2.6zm-5.2-7.2l-2.7 2.7 8 3.2 2.7-2.7-8-3.2zm9 4.3v5.6l8-3.4v-1.7l-5.2 2.1-2.8-2.6zm.1-1.1l2.8 2.7 8.1-3.2-2.8-2.7-8.1 3.2zM507.7 31.5c0 .8-.2 1.5-.6 2.1-.3.4-.6.4-.6.4h-21.5s-.4 0-.7-.4c-.4-.6-.6-1.3-.6-2.1 0-2.2 1.8-4 4-4h.3c.3-1.5 1.6-2.6 3.2-2.6.4 0 .9.1 1.2.3 1-1.9 3-3.2 5.3-3.2 3.1 0 5.7 2.4 6 5.5 2.2 0 4 1.8 4 4zM599.1 13.1c-2.2 0-4.1 1.2-5.1 2.9h10.2c-1-1.8-2.9-2.9-5.1-2.9zM598.7 26.1v11.9h.9v-11.9c2-.2 3.7-1.3 4.6-3h-10.2c.9 1.7 2.8 2.8 4.7 3zM605.2 17.1h-12.2c-.2 0-.4.2-.4.4v4.1c0 .2.2.4.4.4h12.2c.2 0 .4-.2.4-.4v-4.1c0-.2-.2-.4-.4-.4z"/><g fill="#fff"><path d="M710.154 21.699l5.657-5.657.919.919-5.657 5.657zM713.6 21.1l-1.2 1.2c0 .6-.2 1.2-.6 1.6-.8.8-2.2.8-3 0-.8-.8-.8-2.2 0-3 .4-.4 1-.6 1.6-.6l1.2-1.2-.7-.7s-6.4-.5-7.1.1l-10.7 10.7c-.7.7-.7 1.8 0 2.4l7.9 7.9c.7.7 1.7.7 2.4 0l10.7-10.7c.7-.7.4-6.8.4-6.8l-.9-.9zm-14.9 8.4l1.4-1.4-1.3-1.3 1.3-1.3 1.3 1.3 1.4-1.4 1.4 1.4-1.4 1.4 1.3 1.3-1.3 1.3-1.3-1.3-1.4 1.4-1.4-1.4zm3.7 6.6l-1.5-1.5 6-6-1.1-1.1 1.3-1.3 2.6 2.6-7.3 7.3z"/></g><g fill="#fff"><path d="M744.8 17.1h4.8v3.8h-4.8zM762.9 17.1h4.8v3.8h-4.8zM762.9 28.9c0 3.9-2.8 7.1-6.8 7.1s-6.5-3.2-6.5-7.1v-6.9h-4.8v7.7c0 6.2 5 11.3 11.3 11.3 6.2 0 11.6-5 11.6-11.3v-7.7h-4.8v6.9z"/></g><g fill="#fff"><path d="M802.7 22.1h3.9v3.9h-3.9zM818.7 37h3.9v3.9h-3.9zM818.7 25.9v5.1h3.9v-9h-9.9v3.9zM811.6 32.1v-15.1h-3.9v18.9h19v-3.8z"/></g><g fill="#fff"><path d="M820.9 342.1h-7.5c-.9 0-1.7 1.1-1.7 2v18.2c0 .9.8 1.7 1.7 1.7h7.5c.9 0 1.7-.8 1.7-1.7v-18.2c0-.9-.7-2-1.7-2zm.9 20.1c0 .5-.4.9-.9.9h-7.4c-.5 0-.9-.4-.9-.9v-18c0-.5.4-1.3.9-1.3h7.4c.5 0 .9.8.9 1.3v18zm-8.1-.7c0 .3.2.5.5.5h5.8c.2 0 .5-.2.5-.5v-10l-6.8 4.1v5.9zM815.7 340h2.9v1h-2.9z"/></g><path fill="#fff" d="M758.1 342.2h-5.8c-.2 0-.5.2-.5.5v16.8c0 .3.2.5.5.5h5.8c.2 0 .5-.2.5-.5v-16.8c0-.2-.2-.5-.5-.5zM759 340h-7.5c-.9 0-1.7.8-1.7 1.7v18.6c0 .9.8 1.7 1.7 1.7h7.5c.9 0 1.7-.8 1.7-1.7v-18.6c0-.9-.8-1.7-1.7-1.7zm.9 20.2c0 .5-.4 1-.9 1h-7.4c-.5 0-.9-.4-.9-1v-18.3c0-.5.4-1 .9-1h7.4c.5 0 .9.4.9 1v18.3zM753.7 338h2.9v1h-2.9zM327.7 468.9v1h.9l-4.1-16v-1.5c0-.2-.2-.4-.4-.4s-.4.2-.4.4v1.5l-4.1 16h1v-1h2.1v1h1v5.5c0 .2.3.4.5.4s.5-.2.5-.4v-5.4h1v-1h2zM657.1 471.8c.3 0 .5-.2.5-.4v-2.4l-6.8 2.8h6.3zm.9-19.7h-7.5c-.9 0-1.7.8-1.7 1.7v18.5c0 .9.8 1.7 1.7 1.7h7.5c.9 0 1.7-.8 1.7-1.7v-18.5c0-.9-.8-1.7-1.7-1.7zm.7 20.1c0 .5-.4.9-.9.9h-7.3c-.5 0-.9-.4-.9-.9v-18.3c0-.5.4-.9.9-.9h7.3c.5 0 .9.4.9.9v18.3zM652.7 450h2.9v.9h-2.9zM269.9 453.1h-7.6c-.9 0-1.7.8-1.7 1.7v18.4c0 1 .8 1.7 1.7 1.7h7.6c.9 0 1.7-.8 1.7-1.7v-18.4c0-.9-.7-1.7-1.7-1.7zm.9 20.2c0 .5-.4 1-.9 1h-7.4c-.5 0-.9-.4-.9-1v-18.4c0-.5.4-1 .9-1h7.4c.5 0 .9.4.9 1v18.4zm-8-.9c0 .3.2.5.5.5h5.8c.2 0 .5-.2.5-.5v-6.8l-6.7 4v2.8h-.1zM264.7 451.1h2.9v.9h-2.9zM763.7 193c-1 0-1.9.4-2.6 1l-9.5-4.8v-.6l9.5-4.8c.7.6 1.6 1 2.6 1 2.2 0 4-1.8 4-3.9 0-2.2-1.8-3.9-4-3.9s-4 1.8-4 3.9v.3l-9.5 4.8c-.7-.6-1.6-1-2.6-1-2.2 0-4 1.8-4 3.9 0 2.2 1.8 3.9 4 3.9 1 0 1.9-.4 2.6-1l9.5 4.8v.3c0 2.2 1.8 3.9 4 3.9s4-1.8 4-3.9c0-2.1-1.8-3.9-4-3.9zm0-14.1c1.1 0 2 .9 2 2s-.9 2-2 2-2-.9-2-2 .8-2 2-2zm-16 12.1c-1.1 0-2-.9-2-2s.9-2 2-2 2 .9 2 2-.9 2-2 2zm16 8c-1.1 0-2-.9-2-2s.9-2 2-2 2 .9 2 2-.9 2-2 2zM499.7 126.1v3.8h1v1.7l-6.1 3v-7.7h3.1l-3.9-4.9-4 4.9h3v10.3l-6.1-2.7v-1.7c1.1-.4 1.9-1.5 1.9-2.8 0-1.6-1.3-3-2.9-3s-2.9 1.3-2.9 3c0 1.3.8 2.4 1.9 2.8v2.9l8.1 3.6v1.9c-1.2.4-2 1.5-2 2.8 0 1.6 1.4 2.9 3 2.9s2.9-1.3 2.9-2.9c0-1.3-.8-2.4-2-2.8v-4.5l8-3.9v-2.9h1v-3.8h-4z"/><g fill="#fff"><path d="M267.6 16.1c-4.4 0-7.9 3.5-7.9 7.7 0 1.1.2 2.1.7 3.1l7.2 13 7.2-13c.4-.9.7-2 .7-3.1 0-4.2-3.6-7.7-7.9-7.7zm.1 13c-2.8 0-5.1-2.3-5.1-5.1s2.3-5.1 5.1-5.1 5.1 2.3 5.1 5.1c-.1 2.8-2.3 5.1-5.1 5.1z"/><ellipse cx="267.7" cy="24" rx="2.9" ry="2.9"/></g><path fill="#fff" d="M393.7 137.7v4.4l-14.3.1v-14.2h10.5l2.8-2.8h-16v19.8h19.9v-9.7zM400.2 126.8l-2.2-2.2c-.6-.6-1.8-.8-2.3-.3l-8.8 8.8s-1.9 5.7-2.1 6.2c-.1.4.3.9.7.7.5-.3 5.9-2.4 5.9-2.4l8.8-8.8c.5-.6.6-1.4 0-2zm-14.1 10.8l1.5-4.1 8.5-8.7c.1-.2.8.2 1.1.5l-8.5 8.5v1.2h1l8.6-8.5.8.8-8.8 8.9v.3l.5.5-3.7 1.5-1-.9z"/><g fill="#fff"><path d="M553.7 397.9c-2-1.4-4.5-1.1-5.9.6 1.4.5 2.8 1.2 4.1 2.1 1.3.9 2.4 2 3.3 3.2 1-1.9.4-4.5-1.5-5.9zM537.6 400.6c1.3-.9 2.7-1.6 4.1-2.1-1.4-1.7-4-2-5.9-.6-2 1.4-2.5 4-1.4 5.9.8-1.2 1.9-2.3 3.2-3.2zM550.5 410.1h-3.9c-.1-.6-.4-1-1-1v-5h-.9v4.9c-.6.1-1 .6-1 1.6 0 .9.6 1.4 1.4 1.4 0 0 1.4 0 1.5-1.1h3.9v-.8zM554.6 410v-.9c-.4-4.7-4.2-8.5-8.9-9h-1c-5.5 0-9.9 4.4-9.9 9.9v.1c0 2.8 1.2 5.3 3.1 7.1-.6.3-1.1 1-1.1 1.7 0 1.1.9 1.9 1.9 1.9 1 0 1.9-.8 1.9-1.8 1.1.5 2.2.8 3.4.8h1.2999999999999998c1.2-.1 2.4-.4 3.5-.9 0 1 .9 1.9 1.9 1.9 1.1 0 1.9-.9 1.9-1.9 0-.8-.5-1.5-1.1-1.8 1.9-1.7 3.1-4.3 3.1-7.1zm-9.8 7c-3.9 0-7.2-3.2-7.2-7.1s3.2-7.1 7.2-7.1c3.9 0 7.2 3.2 7.2 7.1s-3.3 7.1-7.2 7.1z"/></g><g fill="#fff"><path d="M389.8 196c2.3 0 4.8-2.5 4.8-5.3v-8.9c0-3.2-2.6-5.8-5.9-5.8h-7.1c-3.3 0-5.9 2.6-5.9 5.8v8.9c0 2.8 2.6 5.3 5.8 5.3h8.3zm-.6-2c-.8 0-1.5-.7-1.5-1.5s.7-1.5 1.5-1.5 1.5.7 1.5 1.5-.7 1.5-1.5 1.5zm-7.5-16.1h6.9c.2 0 .3.3.3.7 0 .4-.1.7-.3.7h-6.9c-.2 0-.3-.3-.3-.7 0-.4.1-.7.3-.7zm-3.3 5.8v-.3c0-1.4.2-2.5 1.6-2.5h10c1.4 0 1.6 1.1 1.6 2.5v.3c0 1.4-.2 2.5-1.6 2.5h-10c-1.3 0-1.6-1.1-1.6-2.5zm2.7 7.4c.8 0 1.5.7 1.5 1.5s-.7 1.5-1.5 1.5-1.5-.7-1.5-1.5c0-.9.7-1.5 1.5-1.5zM380.6 176v-1h9.1v1h.5l4.5-4h-18.9l4.5 4h.3zm-1-3h11.1v1h-11.1v-1z"/></g><g fill="#fff"><path d="M534.9 294.1l1.5 15.9c0 .6.5 1 1 1h11.4c.6 0 1-.5 1-1l1.5-15.9h-16.4zm5.1 13.8h-1.3l-.8-11h1.3l.8 11zm3.8.3h-1.3v-11.2h1.3v11.2zm3.8-.3h-1.3l.8-11h1.3l-.8 11zM551.5 290.2h-4.9v-2.1c0-.6-.5-1.1-1.1-1.1h-4.6c-.6 0-1.2.3-1.2.9v2.1l-4.9.1c-.6 0-1.1.5-1.1 1.1v1.7h19v-1.7c-.1-.6-.6-1-1.2-1zm-10.9-1.3c0-.6.6-1.1 1.3-1.1h2.6c.7 0 1.3.5 1.3 1.1v1.3h-5.2v-1.3z"/></g><path fill="#fff" d="M274.6 560h-1v-1h-1v-4h-.9v4h-1v1h-1v2h-2v17h9v-17h-2v-2zm-2 1h1.1v1.1h-1.1v-1.1zm-2 0h1.1v1.1h-1.1v-1.1zm.2 16.1h-1.1v-1.1h1.1v1.1zm0-1.9h-1.1v-1.2h1.1v1.2zm0-2.1h-1.1v-1.1h1.1v1.1zm0-2h-1.1v-1.1h1.1v1.1zm0-2h-1.1v-1.1h1.1v1.1zm0-2h-1.1v-1.1h1.1v1.1zm0-2h-1.1v-1.1h1.1v1.1zm1.9 12h-1.1v-1.1h1.1v1.1zm0-2h-1.1v-1.1h1.1v1.1zm.1-2h-1.1v-1.1h1.1v1.1zm0-2h-1.1v-1.1h1.1v1.1zm0-2h-1.1v-1.1h1.1v1.1zm0-2h-1.1v-1.1h1.1v1.1zm0-2h-1.1v-1.1h1.1v1.1zm1.9 12h-1.1v-1.1h1.1v1.1zm.1-1.9h-1.2v-1.2h1.2v1.2zm0-2.1h-1.2v-1.1h1.2v1.1zm0-2h-1.2v-1.1h1.2v1.1zm0-2h-1.2v-1.1h1.2v1.1zm0-2h-1.2v-1.1h1.2v1.1zm0-3.2v1.1h-1.2v-1.1h1.2zM263.6 560.1h-1v-1h-.9v-4h-.9v4h-1v1h-1v2h-2v17h9v-17h-2v-2zm-2 .9h1.1v1.1h-1.1v-1.1zm-2 0h1.1v1.1h-1.1v-1.1zm.1 16.2h-1.1v-1.3h1.1v1.3zm0-2h-1.1v-1.2h1.1v1.2zm0-2.1h-1.1v-1.1h1.1v1.1zm0-2h-1.1v-1.1h1.1v1.1zm0-2h-1.1v-1.1h1.1v1.1zm0-2h-1.1v-1.1h1.1v1.1zm0-2h-1.1v-1.1h1.1v1.1zm2.1 12.1h-1.1v-1.2h1.1v1.2zm0-2h-1.1v-1.2h1.1v1.2zm0-2.1h-1.1v-1.1h1.1v1.1zm0-2h-1.1v-1.1h1.1v1.1zm0-2h-1.1v-1.1h1.1v1.1zm0-2h-1.1v-1.1h1.1v1.1zm0-2h-1.1v-1.1h1.1v1.1zm1.9 11.9h-1.2v-1.1h1.2v1.1zm0-1.9h-1.1v-1.1h1.1v1.1zm0-2h-1.1v-1.1h1.1v1.1zm0-2h-1.1v-1.1h1.1v1.1zm0-2h-1.1v-1.1h1.1v1.1zm0-2h-1.1v-1.1h1.1v1.1zm0-3.2v1.1h-1.1v-1.1h1.1zM273.7 506v-5h-2v3h-2v-3h-2v3h-2v-3h-2v3h-2v-3h-2v5l3 2v12l-3 2v3h14v-3l-3-2v-12l3-2zm-4 14h-1v-12h1v12zM337.5 505.1l-3.9-4-7.9 8-8-8.1-4 4 8 8-7.9 7.9 4 4 7.9-7.9 7.9 8 3.9-4-7.9-8z"/><g fill="#fff"><path d="M327.1 558.7l3.9 4.3h5.5l-9.4-9.9-9.4 9.9h5.6zM327.1 571.4l-3.9-4.3h-5.5l9.4 9.9 9.4-9.9h-5.5z"/></g><path fill="#fff" d="M597.3 232.5c-.9 0-1.6.5-1.6 1.4 0 .9.7 1.6 1.6 1.6h8.1l-18.2 18.5c-.6.6-.5 1.5 0 2 .6.6 1.5.6 2 0l18.5-18.3v8.2c0 .9.7 1.6 1.6 1.6.4 0 1.4-.6 1.4-1.6v-13.3l-13.4-.1zM547.2 256c.9 0 1.6-.5 1.6-1.4 0-.9-.7-1.6-1.6-1.6h-8.1l18.2-18.5c.6-.6.5-1.5 0-2-.6-.6-1.5-.6-2 0l-18.6 18.3v-8.2c0-.9-.6-1.6-1.5-1.6-.4 0-1.4.6-1.4 1.6v13.3l13.4.1zM441.7 557c-6.6 0-11.9 4-11.9 8.9 0 4.5 4.5 8.2 10.3 8.8l-3.1 5.1 9.2-5.6c4.4-1.3 7.5-4.5 7.5-8.3 0-4.9-5.4-8.9-12-8.9zM442.6 500c-6.6 0-11.9 4-11.9 8.9 0 4.5 4.5 8.2 10.3 8.8l-3.1 5.1 9.2-5.6c4.4-1.3 7.5-4.5 7.5-8.3 0-4.9-5.4-8.9-12-8.9zm.1 12h-1.1v-1.9h-1.9v1.9h-1.2v-6.1h1.2v3.1h1.9v-3.1h1.1v6.1zm2 0h-1.1v-4.1h1.1v4.1zm.1-4.9h-1.2v-1.2h1.2v1.2zm3 5h-1.2v-1.1h1.2v1.1zm0-2h-1.2v-4.2h1.2v4.2zM386.6 513l7.2-9.5c-2-1.5-4.5-2.5-7.2-2.5-6.6 0-11.9 5.4-11.9 12s5.3 12 11.9 12c5.3 0 9.8-3.5 11.3-8.2l-11.3-3.8zm-3-4.1c-1.1 0-2-.9-2-2s.9-2 2-2 2 .9 2 2c.1 1.1-.8 2-2 2zM385.7 556c-6.6 0-11.9 4-11.9 8.9 0 4.5 4.5 8.2 10.3 8.8l-3.1 5 9.2-5.5c4.4-1.3 7.5-4.5 7.5-8.3 0-4.9-5.4-8.9-12-8.9zm-4.4 11.4c-1.1 0-1.9-.9-1.9-1.9s.9-1.9 1.9-1.9 1.9.9 1.9 1.9-.9 1.9-1.9 1.9zm5 0c-1.1 0-1.9-.9-1.9-1.9s.9-1.9 1.9-1.9 1.9.9 1.9 1.9-.9 1.9-1.9 1.9zm5-.1c-1 0-1.8-.8-1.8-1.8s.8-1.8 1.8-1.8 1.8.8 1.8 1.8-.8 1.8-1.8 1.8z"/><g fill="#fff"><ellipse cx="494.6" cy="513.1" rx="1.9" ry="1.9"/><path d="M488.3 506.1c1.2 1.3 2 2.6 1.8 2.8-.2.2-1.3-.6-2.5-2-1.2-1.3-2-2.6-1.8-2.8s1.3.7 2.5 2zM501.7 506.9c-1.2 1.3-2.3 2.2-2.5 2-.2-.2.6-1.5 1.8-2.8 1.2-1.3 2.3-2.2 2.5-2 .2.3-.6 1.5-1.8 2.8zM491.6 523.2c0 .4-.4.7-.9.7s-.9-.3-.9-.7v-1.4c0-.4.4-.7.9-.7s.9.3.9.7v1.4zM499.6 523.2c0 .4-.4.7-1 .7-.5 0-1-.3-1-.7v-1.4c0-.4.4-.7 1-.7.5 0 1 .3 1 .7v1.4zM506.6 503.4c0 .8-.9 1.4-1.9 1.4h-19.9c-1 0-1.9-.6-1.9-1.4 0 0-.3-.4 1.9-.4h19.9c2 0 1.9.4 1.9.4zM494.8 509.5c2.2 0 3.2 1.4 3.2 1.4h3.6c-.8-2.8-3.6-4.9-6.9-4.9-3.3 0-6.1 2.1-6.9 4.9h3.8c-.1 0 .9-1.4 3.2-1.4zM494.8 516.6c-2.5 0-3.2-1.5-3.2-1.5h-3.8c.8 2.8 3.6 4.8 6.9 4.8 3.3 0 6.1-2.1 6.9-4.8h-3.6s-.7 1.5-3.2 1.5zM491.6 513.9s-6.9.3-6.9-.8 6.9-1 6.9-1v1.8zM497.7 512.2s6.8-.2 6.8.9l-6.8.9v-1.8z"/></g><g fill="#fff"><path d="M505.8 558c-.1 1.4-1.3 1.9-3.1 2.5-.9.3-1.8.6-2.6 1.1-1.3-.7-2.3-.5-2.3-.5l-1.9 2.4c1.9.6 3.5 1.8 4.6 3.4l1.9-2.4s.1-1-1.4-2.3c.6-.3 1.2-.5 1.9-.7 1.7-.5 3.5-1.2 3.7-3.4l-.8-.1zM494.5 564.5c-.9-.3-1.8-.5-2.8-.5-4.9 0-8.9 4-8.9 8.9s4 8.9 8.9 8.9 8.9-4 8.9-8.9c0-1.8-.6-3.5-1.5-5-1.1-1.5-2.7-2.7-4.6-3.4zm-2 2.8c-3.8 0-5.8 2.3-5.8 6.1h-1.5c0-4.1 3.1-7.4 7-7.8 0 0 .6 1.7.3 1.7z"/></g><path fill="#fff" d="M607.6 514.8h3.1v-3.7h-3.1c-.2-1.1-.7-2.2-1.3-3.1l2.2-2.2-2.6-2.6-2.2 2.2c-.9-.6-2-1.1-3.1-1.3v-3.1h-3.6v3.1c-1.1.2-2.2.7-3.1 1.3l-2.2-2.2-2.6 2.6 2.2 2.2c-.6.9-1 2-1.3 3.1h-3.2v3.7h3.2c.2 1.1.7 2.1 1.3 3.1l-2.2 2.2 2.6 2.6 2.2-2.2c.9.6 2 1 3.1 1.3v3.2h3.7v-3.1c1.1-.2 2.2-.7 3.1-1.3l2.2 2.2 2.6-2.6-2.2-2.2c.5-1 .9-2 1.2-3.2zm-8.8 3.2c-2.8 0-5-2.2-5-5s2.2-5 5-5 5 2.2 5 5-2.2 5-5 5zM610.5 568.5l-2.6-2.6c-.3-.3-.8-.3-1.2 0v1.6h-6v-7h1.7c.3-.3.3-.8 0-1.2l-2.5-2.6c-.3-.3-.8-.3-1.2 0l-2.8 2.6c-.3.3-.3.8 0 1.2h1.8v7h-7v-1.6c-.3-.3-.8-.3-1.2 0 0 0-2.8 2.3-2.8 3.1 0 .6 2.8 3.3 2.8 3.3.3.3.8.3 1.2 0v-1.9h7v6.3h-1.7c-.3.3-.3.8 0 1.1 0 0 2.5 2.8 3.2 2.8.6 0 3.1-2.8 3.1-2.8.3-.3.3-.8 0-1.1h-1.7v-6.3h6v1.9c.3.3.8.3 1.2 0l2.6-2.6c.5-.4.5-.9.1-1.2z"/><g fill="#fff"><path d="M532.9 558v3.8c11 0 20 9 20 20.1h3.8c0-13.2-10.7-23.9-23.8-23.9zM532.9 566v3.9c6.6 0 12 5.4 12 12h4c-.1-8.8-7.3-15.9-16-15.9zM532.9 575.1v6.8h6.8c-.1-3.8-3.1-6.8-6.8-6.8z"/></g><g fill="#fff"><ellipse cx="545.7" cy="498.1" rx="10" ry="3.9"/><path d="M545.6 511c-5.4 0-9.9-1.8-9.9-3v6c0 2.2 4.4 3.9 9.9 3.9s9.9-1.8 9.9-3.9v-6c0 1.2-4.5 3-9.9 3zM545.6 503c-5.4 0-9.9-1.8-9.9-3v6c0 2.2 4.4 3.9 9.9 3.9s9.9-1.8 9.9-3.9v-6c0 1.2-4.5 3-9.9 3z"/></g><g fill="#fff"><path d="M654.2 516.1h-7.2c-.8 0-1.4.8-1.4 1.7v3.4c0 .9.6 1.7 1.4 1.7h7.2c.8 0 1.4-.8 1.4-1.7v-3.4c0-.9-.6-1.7-1.4-1.7zm-1.4 2h-4.2v-1.1h4.2v1.1zM654.2 505.1h-7.1c-.8 0-1.4.8-1.4 1.7v3.4c0 .9.6 1.7 1.4 1.7h7.1c.8 0 1.4-.8 1.4-1.7v-3.4c0-.9-.7-1.7-1.4-1.7zm-1.4 2h-4.2v-1.2h4.2v1.2zM656.3 502.1h-11.4c-1.2 0-2.2 1-2.2 2.2v19.6c0 1.2 1 2.2 2.2 2.2h11.4c1.2 0 2.2-1 2.2-2.2v-19.6c0-1.2-1-2.2-2.2-2.2zm.5 19.2c0 1.6-1.1 2.8-2.5 2.8h-7.4c-1.4 0-2.5-1.3-2.5-2.8v-3.6c0-1.6 1.1-2.8 2.5-2.8h7.4c1.4 0 2.5 1.3 2.5 2.8v3.6zm-.1-11c0 1.6-1.1 2.8-2.5 2.8h-7.4c-1.4 0-2.5-1.3-2.5-2.8v-3.6c0-1.6 1.1-2.8 2.5-2.8h7.4c1.4 0 2.5 1.3 2.5 2.8v3.6z"/></g><g fill="#fff"><path d="M655.7 579h-8v1h-2v2h12v-2h-2zM650.7 564v14h2v-14h7l-7-1.7v-1.3l-1-3-1 3v1.3l-7 1.7zM657.7 577h4l2-2h-8zM647.7 575h-9l3 2h4zM643.7 566.8l3.1 7.2.9-.4-3.6-8.3c-.1-.2-.3-.3-.5-.3s-.4.1-.5.3l-4.5 8.3.9.3 4.2-7.1zM659.1 565.3l-3.5 8.3.9.3 3.1-7.2 3.1 7.2.9-.4-3.6-8.3c-.1-.2-.3-.3-.5-.3l-.4.4z"/></g><g fill="#fff"><ellipse cx="698.7" cy="579" rx="2" ry="1.9"/><ellipse cx="710.7" cy="579" rx="2" ry="1.9"/><path d="M714.7 574h-18v-10.2l-3.2-4.4c-.3-.4-.9-.5-1.4-.2-.4.3-.5.9-.2 1.4l2.8 3.9v9.5h-.1c-.6 0-1 .4-1 1 0 .5.4 1 1 1h20c.6 0 1-.4 1-1 .1-.5-.4-1-.9-1zM708.6 566h-2v-1.9c0-.5-.4-1-1-1-.5 0-1 .4-1 1v1.9h-2c-.5 0-1 .4-1 1s.4 1 1 1h2v2c0 .5.4 1 1 1 .5 0 1-.4 1-1v-2h2c.5 0 1-.4 1-1s-.5-1-1-1z"/></g><g fill="#fff"><ellipse cx="698.7" cy="522" rx="2" ry="1.9"/><ellipse cx="710.7" cy="522" rx="2" ry="1.9"/><path d="M714.7 517h-18v-10.2l-3.2-4.4c-.3-.4-.9-.5-1.4-.2-.4.3-.5.9-.2 1.4l2.8 3.9v9.5h-.1c-.6 0-1 .4-1 1 0 .5.4 1 1 1h20c.6 0 1-.4 1-1 .1-.5-.4-1-.9-1zM708.4 510h-1.8v-3.9c0-.5-.4-1-1-1s-1 .4-1 1v3.9h-1.8c-.3.3-.4.9 0 1.2l2.2 2.5c.3.3.8.3 1.1 0l2.2-2.5c.4-.3.4-.8.1-1.2z"/></g><g fill="#fff"><path d="M764.2 520.2c-.4-1.4-1-2.7-1.7-4-.6.2-1.1.2-1.6-.2l-.1-.1c-2.6 1.6-5.9 2.7-9 3.2 0 .3-.3.5-.6.8-.1.2-.3.3-.5.4.8 1.7 1.9 3.2 3.3 4.6 3.8.2 7.6-1.4 10.1-4.6l.1-.1zM760.3 513.2c-1.2-1.4-2.5-2.8-4-3.9-1.2-.9-2.5-1.7-3.7-2.3 0 0 0 .1-.1.1-.4.6-1.1.8-1.8.8-.9 2.9-1.4 6.1-1 9 .4 0 .8.1 1.2.4.3.2.3.5.5.8 2.9-.4 6-1.4 8.5-3-.3-.7 0-1.4.4-1.9zM748.8 516.9c-.4-3.1.1-6.5 1-9.6 0 0-.1 0-.1-.1-.5-.4-.8-1.1-.8-1.7-1.1-.2-2.2-.3-3.3-.4l-.4.5c-2.6 3.3-3.1 7.6-1.8 11.3 1.4.6 2.9 1 4.4 1.1l.3-.6c.2-.2.4-.4.7-.5zM763.6 515.5c0 .1-.1.1-.1.1.6 1.1 1.2 2.2 1.6 3.4 1.7-2.8 2.1-6.2 1.2-9.2l-.4.6-2.1 2.8c.3.8.3 1.7-.2 2.3zM752.9 505.9c1.4.7 2.7 1.5 4 2.4 1.6 1.1 3 2.6 4.2 4.1.6-.3 1.3-.2 1.8.1.7-.8 1.4-1.8 2-2.7.3-.4.6-.8.8-1.2-.8-2-2-3.8-3.8-5.1-2.3-1.8-5.1-2.6-7.8-2.5-.2.2-.3.4-.5.7-.6.8-1.1 1.6-1.6 2.5.7.4 1 1 .9 1.7zM747.7 519.1c-1.3-.1-2.6-.4-3.9-.8.8 1.6 1.9 3.1 3.4 4.3 1.6 1.2 3.4 2 5.3 2.3-1.1-1.3-2-2.7-2.7-4.1-.5 0-1-.1-1.4-.4-.3-.4-.6-.9-.7-1.3zM751.2 503.7c.5-.9 1-1.7 1.6-2.6-2.3.4-4.6 1.4-6.4 3.1.9.1 1.8.2 2.7.4l.1-.2c.6-.5 1.3-.8 2-.7z"/></g><g fill="#fff"><path d="M764.5 562l-7.8 1-7.9-1c-2.2 0-4.1 1.9-4.1 4.1v7.6c0 2.3 1.8 4.1 4.1 4.1l7.9-1 7.8 1c2.2 0 4.1-1.9 4.1-4.1v-7.6c-.1-2.2-1.9-4.1-4.1-4.1zm-8.8 12.1h-2.2v-3h-3.8v3h-2.2v-8.2h2.2v3h3.8v-3h2.2v8.2zm5.1.1h-3.3v-8.3h3.3c3.7 0 4.9 1.3 4.9 4.1 0 2.9-1 4.2-4.9 4.2zM761.3 568.1h-1.6v3.9h1.6c1.3 0 2.3-.3 2.3-1.9 0-1.7-1.1-2-2.3-2z"/></g><path fill="#fff" d="M828.7 509.9v-8.9h-9l3.5 3.4-5.2 5.2c-1.4-1-3.1-1.6-4.9-1.6-4.7 0-8.5 3.8-8.5 8.5s3.8 8.5 8.5 8.5 8.5-3.8 8.5-8.5c0-1.8-.6-3.5-1.6-4.9l5.2-5.2 3.5 3.5zm-15.4 11.7c-2.9 0-5.3-2.3-5.3-5.2 0-2.9 2.4-5.2 5.3-5.2s5.3 2.3 5.3 5.2c0 2.9-2.4 5.2-5.3 5.2z"/><g fill="#fff"><path d="M815.5 561.9h9.3c.4 0 .8-.4.8-.8v-2.3c0-.4-.4-.8-.8-.8h-9.3c-.4 0-.8.4-.8.8v2.3c0 .5.4.8.8.8zM821.6 577.8c0 .5.1 1.1.3 1.5 2.5-.6 2.8-3.1 2.6-5.3-1.6.4-2.9 2-2.9 3.8zM807.7 579.2c0 2 1.8 2.6 3.6 2.7.8-.7 1.3-1.8 1.3-2.9 0-1.5-.9-2.9-2.2-3.5-2.6 1.5-2.7 2.6-2.7 3.7zM824.4 573c-.2-1.2-.4-2.2-.4-2.7 0-4.6.5-7.2.5-7.2l-8.7.1s.5 2.3.5 4.9.4 4.4-3.9 6.5l-.8.4c1.3.9 2.1 2.4 2.1 4.1 0 1.1-.4 2.1-.9 2.9 1.4-.3 5.1-1.6 8.1-2.3-.2-.5-.3-1.1-.3-1.8 0-2.4 1.6-4.4 3.8-4.9z"/></g><g fill="#fff"><path d="M867.9 463.1l-7.1 6.9h5.8l7.1-6.9-7.3-6.9h-5.7zM871.9 470h5.7l7.1-6.9-7.2-6.9h-5.7l7.1 6.9z"/></g><g fill="#fff"><path d="M885.6 182.5c0 3-2.5 5.5-5.5 5.5h-5.5v-5.5c0-3 2.5-5.5 5.5-5.5 3.1 0 5.5 2.5 5.5 5.5zM872.6 182.5v5.5h-5.5c-3 0-5.5-2.5-5.5-5.5s2.5-5.5 5.5-5.5c3.1 0 5.5 2.5 5.5 5.5zM872.5 195.5c0 3-2.4 5.5-5.4 5.5-3 0-5.4-2.5-5.4-5.5s2.4-5.5 5.4-5.5h5.5s-.1 4-.1 5.5zM885.6 195.5c0 3-2.4 5.5-5.5 5.5s-5.5-2.5-5.5-5.5v-5.5h5.4c3.2 0 5.6 2.5 5.6 5.5z"/></g><g fill="#fff"><path d="M878.4 129.1h-13.5c-1.2 0-2.2 1-2.2 2.2v13.6c0 1.2 1 2.2 2.2 2.2h13.5c1.2 0 2.2-1 2.2-2.2v-13.6c0-1.3-1-2.2-2.2-2.2zm-12.7 16h-1.1v-1.1h1.1v1.1zm0-13h-1.1v-1.1h1.1v1.1zm10 9c0 .6-.4 1-1 1h-6.1c-.6 0-1-.4-1-1v-6.2c0-.6.4-1 1-1h6.1c.5 0 1 .4 1 1v6.2zm3 4h-1.1v-1.1h1.1v1.1zm0-13h-1.1v-1.1h1.1v1.1zM873.9 135.1h-4.4c-.4 0-.7.3-.7.7v4.5c0 .4.3.7.7.7h4.4c.4 0 .7-.3.7-.7v-4.5c0-.4-.3-.7-.7-.7zM865.7 126h.9v2h-.9zM876.7 126h.9v2h-.9zM871.7 126h.9v2h-.9zM865.7 148.1h1v1.9h-1zM876.7 148.1h.9v1.9h-.9zM871.7 148.1h.9v1.9h-.9zM859.7 143h2v1h-2zM859.7 132h2v1h-2zM859.7 138h2v1h-2zM881.7 143h2v1h-2zM881.7 137h2v1h-2zM881.7 132h2v1h-2z"/></g><g fill="#fff"><ellipse cx="867.1" cy="248.5" rx="6.5" ry="6.4"/><path d="M878.3 242c-1.8 0-3.4.8-4.6 2 .9 1.2 1.4 2.8 1.4 4.4 0 1.6-.5 3.2-1.4 4.4 1.2 1.2 2.8 2 4.6 2 3.5 0 6.3-2.9 6.3-6.4 0-3.5-2.8-6.4-6.3-6.4zM872.6 242.9c1.4-1.4 3.2-2.2 5.3-2.2.6 0 1.1.1 1.6.2v-.5c0-3.5-2.9-6.3-6.4-6.3s-6.4 2.8-6.4 6.3v.4h.5c2.2-.1 4.1.8 5.4 2.1z"/></g><path fill="#fff" d="M867.1 297.1c-3.6 0-6.5 2.9-6.5 6.4s2.9 6.4 6.5 6.4 6.5-2.9 6.5-6.4-2.9-6.4-6.5-6.4zm.8 1.9c-2.9 0-5.2 2.3-5.2 5.2 0 1.2-1 .7-1-1 0-2.9 2.3-5.2 5.2-5.2 1.7 0 2.2 1 1 1zM867.3 295.7h.4v-.5c0-2.9 2.3-5.2 5.2-5.2 1.7 0 2.2 1 1 1-2.8 0-5 2.1-5.2 4.8 1.5.3 2.8 1 3.9 2 1.4-1.4 3.2-2.2 5.3-2.2.6 0 1.1.1 1.6.2v-.5c0-3.5-2.9-6.3-6.4-6.3s-6.4 2.8-6.4 6.3v.4h.6zM878.3 297c-1.8 0-3.4.8-4.6 2 .3.4.6.9.8 1.4.9-1.5 2.6-2.5 4.4-2.5 1.7 0 2.2 1 1 1-2.3 0-4.2 1.5-4.9 3.5 0 .3.1.6.1 1 0 1.6-.5 3.2-1.4 4.4 1.2 1.2 2.8 2 4.6 2 3.5 0 6.3-2.9 6.3-6.4 0-3.5-2.8-6.4-6.3-6.4zM881.6 348c-1.3 0-2.5.9-2.8 2.2h-4.4c-.3-1.2-1.5-2.2-2.8-2.2-1.6 0-2.9 1.3-2.9 3 0 .4.1.8.2 1.1l-3.7 2.4c-.5-.3-1-.5-1.6-.5-1.6 0-2.9 1.3-2.9 3 0 1.6 1.3 3 2.9 3s2.9-1.3 2.9-3c0-.3-.1-.6-.1-.8l3.9-2.6c.4.2.9.3 1.3.3 1.3 0 2.4-.8 2.7-2h4.5c.4 1.2 1.5 2 2.7 2 1.6 0 2.9-1.3 2.9-3 .1-1.6-1.2-2.9-2.8-2.9zM869.7 17v24h8.8v-24h-8.8zm.8 3.9h2.2v1.2h-2.2v-1.2zm0 6h2.2v1.2h-2.2v-1.2zm0 6h2.2v1.2h-2.2v-1.2zm2.3 7.2h-2.2v-1.2h2.2v1.2zm1-3h-3.2v-1.2h3.2v1.2zm0-6h-3.2v-1.2h3.2v1.2zm0-6h-3.2v-1.2h3.2v1.2zm0-6h-3.2v-1.2h3.2v1.2zM873.6 89c-.5 0-1-.5-1-1v-4.6l-3.7-4.3c-.3-.4-.2-1.1.2-1.4l5.7-4.4c.2-.2.5-.2.7-.2.3 0 .5.2.7.4l2.3 2.7 3.5 1.7c.5.2.8.8.6 1.3s-.8.8-1.3.6l-3.7-1.8c-.2-.1-.3-.2-.4-.3l-1.9-2.2-4 3.2 3.2 3.8c.1.2.1.3.1.5v4.9c0 .6-.4 1.1-1 1.1z"/><g fill="#fff"><path d="M881.2 81c-2.5 0-4.4 2-4.4 4.5s2 4.5 4.4 4.5c2.5 0 4.4-2 4.4-4.5s-1.9-4.5-4.4-4.5zm0 7.1c-1.4 0-2.6-1.2-2.6-2.6s1.2-2.6 2.6-2.6 2.6 1.2 2.6 2.6-1.1 2.6-2.6 2.6zM866.2 81.1c-2.5 0-4.4 2-4.4 4.4s2 4.4 4.4 4.4 4.4-2 4.4-4.4-1.9-4.4-4.4-4.4zm0 7c-1.4 0-2.6-1.2-2.6-2.6s1.2-2.6 2.6-2.6 2.6 1.2 2.6 2.6-1.1 2.6-2.6 2.6z"/></g><ellipse fill="#fff" cx="878.7" cy="71" rx="2" ry="2"/><g fill="#fff"><path d="M872.6 403c-6.6 0-12 4-12 6s5.4 6 12 6 12-3.9 12-6-5.4-6-12-6zm0 10.1c-4.9 0-6.9-2.8-6.9-4.2s2-4.2 6.9-4.2 6.9 2.7 6.9 4.2-2 4.2-6.9 4.2z"/><ellipse cx="872.7" cy="409" rx="2.9" ry="3"/></g><path fill="#fff" d="M874.7 515.9c3.4-.7 6-3.7 6-7.4 0-4.1-3.4-7.5-7.5-7.5s-7.5 3.4-7.5 7.5c0 3.6 2.6 6.7 6 7.4v3.1h-3.9v2.9h3.9v3h3v-3h3.9v-2.9h-3.9v-3.1zm-6-7.4c0-2.5 2-4.5 4.4-4.5s4.4 2 4.4 4.5-2 4.4-4.4 4.4c-2.4.1-4.4-1.9-4.4-4.4z"/><g fill="#fff"><path d="M884.1 578.6l-8.3-9.6c-.7 1.8-2.3 3.3-4.1 4.1l9.6 8.3c.8.8 2 .8 2.8 0 .7-.8.7-2 0-2.8zM872.5 560c-1.3-1.2-3-2-4.8-2-3.8 0-7 3.1-7 7 0 1.9.8 3.6 2 4.8 1.9-1.1 3.8-2.6 5.5-4.3 1.7-1.7 3.1-3.6 4.3-5.5zM869 566.4c-1.7 1.7-3.5 3.1-5.4 4.3 1.1.8 2.5 1.3 4 1.3 3.8 0 7-3.1 7-7 0-1.5-.5-2.9-1.3-4-1.2 1.8-2.6 3.7-4.3 5.4z"/></g><path fill="#fff" d="M936.6 555h-17.9c-1.7 0-3 1.4-3 3v18c0 1.7 1.4 3 3 3h17.9c1.7 0 3-1.4 3-3v-17.9c.1-1.7-1.3-3.1-3-3.1zm-8.9 16c-2.2 0-4-1.8-4-4s1.8-4 4-4 4 1.8 4 4-1.7 4-4 4zM936.6 289h-17.9c-1.7 0-3 1.4-3 3v18c0 1.7 1.4 3 3 3h17.9c1.7 0 3-1.4 3-3v-17.9c.1-1.7-1.3-3.1-3-3.1zm-15.9 11c-1.6 0-3-1.3-3-3s1.3-3 3-3c1.6 0 3 1.3 3 3s-1.3 3-3 3zm7 0c-1.6 0-3-1.3-3-3s1.3-3 3-3c1.6 0 3 1.3 3 3s-1.3 3-3 3zm-7 8c-1.6 0-3-1.3-3-3s1.3-3 3-3c1.6 0 3 1.3 3 3s-1.3 3-3 3zm14 0c-1.6 0-3-1.3-3-3s1.3-3 3-3c1.6 0 3 1.3 3 3s-1.3 3-3 3zm-7 0c-1.6 0-3-1.3-3-3s1.3-3 3-3c1.6 0 3 1.3 3 3s-1.3 3-3 3zm7-8c-1.6 0-3-1.3-3-3s1.3-3 3-3c1.6 0 3 1.3 3 3s-1.3 3-3 3zM936.6 231h-17.9c-1.7 0-3 1.4-3 3v18c0 1.7 1.4 3 3 3h17.9c1.7 0 3-1.4 3-3v-17.9c.1-1.7-1.3-3.1-3-3.1zm-8.9 15c-1.6 0-3-1.3-3-3s1.3-3 3-3c1.6 0 3 1.3 3 3s-1.4 3-3 3zm-6-6c-1.6 0-3-1.3-3-3s1.3-3 3-3c1.6 0 3 1.3 3 3s-1.4 3-3 3zm0 12c-1.6 0-3-1.3-3-3s1.3-3 3-3c1.6 0 3 1.3 3 3s-1.4 3-3 3zm12 0c-1.6 0-3-1.3-3-3s1.3-3 3-3c1.6 0 3 1.3 3 3s-1.4 3-3 3zm0-12c-1.6 0-3-1.3-3-3s1.3-3 3-3c1.6 0 3 1.3 3 3s-1.4 3-3 3zM936.6 450h-17.9c-1.7 0-3 1.4-3 3v18c0 1.7 1.4 3 3 3h17.9c1.7 0 3-1.4 3-3v-17.9c.1-1.7-1.3-3.1-3-3.1zm-14.9 21c-1.6 0-3-1.3-3-3 0-1.6 1.3-3 3-3 1.6 0 3 1.3 3 3s-1.3 3-3 3zm6.1-5.9c-1.7 0-3-1.4-3-3s1.4-3 3-3c1.7 0 3 1.4 3 3s-1.4 3-3 3zm5.9-6c-1.7 0-3-1.3-3-3s1.3-3 3-3 3 1.3 3 3-1.3 3-3 3zM937.6 396h-17.9c-1.7 0-3 1.4-3 3v18c0 1.7 1.4 3 3 3h17.9c1.7 0 3-1.4 3-3v-17.9c.1-1.7-1.3-3.1-3-3.1zm-13.9 20c-1.6 0-3-1.4-3-3 0-1.7 1.3-3 3-3s3 1.4 3 3c0 1.7-1.3 3-3 3zm10.1 0c-1.6 0-3-1.3-3-3 0-1.6 1.3-3 3-3 1.6 0 3 1.3 3 3-.1 1.7-1.4 3-3 3zm-.1-9.8c-1.7 0-3-1.4-3-3.1s1.4-3.1 3-3.1c1.7 0 3 1.4 3 3.1s-1.3 3.1-3 3.1zm-9.9-.2c-1.7 0-3-1.4-3-3s1.4-3 3-3c1.7 0 3 1.4 3 3s-1.4 3-3 3zM936.6 501h-17.9c-1.7 0-3 1.4-3 3v18c0 1.7 1.4 3 3 3h17.9c1.7 0 3-1.4 3-3v-17.9c.1-1.7-1.3-3.1-3-3.1zm-13.4 20.1c-2 0-3.6-1.6-3.6-3.6s1.6-3.6 3.6-3.6 3.6 1.6 3.6 3.6-1.6 3.6-3.6 3.6zm9.1-9.1c-1.9 0-3.5-1.6-3.5-3.5s1.6-3.5 3.5-3.5 3.5 1.6 3.5 3.5-1.6 3.5-3.5 3.5z"/><g fill="#fff"><path d="M921.7 346.1h18v10.9h-18zM918.7 343h1v1h-1zM918.7 359.1h.8v.8h-.8zM942.6 351v-1h-1v-1.1l1 .1v-1h-1v-1.1h1v-.9h-1v-1.1h1v-.9h-1.1v-1h-.9v1h-1v-1h-1v1h-1v-1h-1v1h-1v-1h-1v1h-1v-1h-1v1h-1v-1h-.9v1h-1v-1h-1v1h-1.1v-1h-.9v1h-1.1v-1h-.9v1h-1.1v-1h-.9v1h-1.1v-1h-.9v1h-1v1h-1v.9h1v1.1h-1v.9h1v1.1h-1v.9h1v1.2h-.9v.8h.9v1.2h-.9v.8h.9v1.2h-.9v.8h.9v1.2h-.9v.8h.9v1l1.1.1v1h.9v-1h1.1v1h.9v-1h1.1v1h.9v-1h1.1v1h.9v-1h1.1v1h.9v-1h1.1v1h.9v-1h1.1v1h.9v-1h1.1v1h.9v-1h1.1v1h.9v-1h1.1v1h.9v-1h1.1v1h.9v-1h1v-1h-1v-1h1v-1h-1v-1h1v-1h-1v-1h1v-1h-1v-1h.9zm-1.9 7h-20v-13h20v13z"/></g><g fill="#fff"><path d="M934.6 125h-12.9c-.6 0-1.1.4-1.1 1v21.9c0 .6.5 1 1.1 1h12.9c.6 0 1.1-.4 1.1-1v-21.9c0-.5-.5-1-1.1-1zm-8 12.1v-4.1h1v-1h-1v-1h1v-1h-1v-1h1v-1h-1v-1h1v-1h2.1v1h-1v1h1v1h-1v1h1v1h-1v1h1v5.1h-3.1zM927.7 135h.9v1h-.9z"/></g><g fill="#fff"><path d="M915.7 79h4v2.9h-4zM935.2 79.1h-10.5v2.8h10.5c.8 0 1.5.7 1.5 1.5v5.2c0 .8-.7 1.5-1.5 1.5h-10.2c-.8 0-1.5-.7-1.5-1.5v-13.6h3.6c.6-.6.6-1 0-1.5l-4-4c-.6-.6-1.5-.6-2.1 0l-4 4c-.6.6-.6 1 0 1.5h3.6v13.6c0 2.5 2 4.5 4.5 4.5h10c2.5 0 4.5-2 4.5-4.5v-5c.1-2.5-1.9-4.5-4.4-4.5z"/></g><g fill="#fff"><path d="M972.7 29h2v2h-2zM974.5 33.1c0 .6.7 4.9-.8 4.9s-.8-4.3-.8-4.9c0-.6.4-1 .8-1s.8.4.8 1zM972.9 26.9c0-.6-.7-4.9.8-4.9s.8 4.3.8 4.9c0 .6-.4 1-.8 1-.5.1-.8-.4-.8-1zM996.5 28h-2.8l1-3.9h1.8zM996.5 32.1h-2.8l1 3.9h1.8zM977.8 27.1c-1.2 0-2.1 1.3-2.1 3s.9 3 2.1 3c1.2 0 18.8-1.3 18.8-3s-17.6-3-18.8-3zm3.7 4.2c-1.5 0-2.7-.6-2.7-1.2 0-.7 1.2-1.3 2.7-1.3s2.7.6 2.7 1.3c0 .6-1.2 1.2-2.7 1.2zM984.6 30.3c.1-.1.1-.2.1-.3l-.1-.3v.6000000000000001zM978.7 34.4c.1 5.1.7 7.6 2.5 7.6s2.4-2.7 2.5-8.1c-2.6.3-5 .5-5 .5zM983.6 26.2c-.1-5.4-.7-8.1-2.5-8.1s-2.3 2.5-2.5 7.7c.5-.1 2.5 0 5 .4z"/></g><path fill="#fff" d="M927.8 16c-6.6 0-11.9 5.3-11.9 11.9v12.1l2-4 1.9 4 2.1-4 1.9 4 2.1-4 1.9 4 2.1-4 2 4 1.9-4 2 4 2-4 1.9 4v-12.1c0-6.6-5.4-11.9-11.9-11.9zm-5 12.2c-1.2 0-2.1-1-2.1-2.1s.9-2.1 2.1-2.1c1.2 0 2.1 1 2.1 2.1s-.9 2.1-2.1 2.1zm10-.1c-1.2 0-2.1-1-2.1-2.1s1-2.1 2.1-2.1c1.2 0 2.1 1 2.1 2.1s-.9 2.1-2.1 2.1zM928.7 177c-6.7 0-10.9 6.4-10.9 14.2 0 3.6 2.2 8.3 3.3 9.4s3.4-1.2 3-2c-.9-1.7-1.5-3.7-1.5-6 0-5.5 2.4-9.9 6.1-9.9s6.1 4.4 6.1 9.9c0 2.2-.6 4.3-1.5 5.9-.4.8 2.2 3 3 2s3.3-5.8 3.3-9.4c.1-7.7-4.2-14.1-10.9-14.1zm-8.4 18.2c-.9 0-1.6-.7-1.6-1.6s.7-1.6 1.6-1.6 1.6.7 1.6 1.6-.8 1.6-1.6 1.6zm.9-7c-.9 0-1.6-.7-1.6-1.6s.7-1.6 1.6-1.6 1.6.7 1.6 1.6-.8 1.6-1.6 1.6zm4.1-6c-.9 0-1.6-.7-1.6-1.6s.7-1.6 1.6-1.6 1.6.7 1.6 1.6-.8 1.6-1.6 1.6zm7-.1c-.9 0-1.6-.7-1.6-1.6s.7-1.6 1.6-1.6 1.6.7 1.6 1.6-.8 1.6-1.6 1.6zm2.4 4.4c0-.9.7-1.6 1.6-1.6s1.6.7 1.6 1.6-.7 1.6-1.6 1.6-1.6-.7-1.6-1.6zm2.6 8.7c-.9 0-1.6-.7-1.6-1.6s.7-1.6 1.6-1.6 1.6.7 1.6 1.6-.8 1.6-1.6 1.6zM994.2 133.5l-7.5-7c-.6-.6-1.3-.7-2-.1v4.7h-.3c-7.5 0-13.7 5.9-13.7 13.2 0 2.5 1.2 1.6 1.7.7 2.3-4.2 6.8-7 12.1-7h.3v4.6c.6.6 1.4.5 2 .1l7.5-7c.5-.5.5-1.5-.1-2.2zM972.1 185.5l7.5-7c.6-.6 1.3-.7 2-.1v4.7h.3c7.5 0 13.7 5.9 13.7 13.2 0 2.5-1.2 1.6-1.7.7-2.3-4.2-6.8-7-12.1-7h-.3v4.6c-.6.6-1.4.5-2 .1l-7.5-7c-.5-.6-.5-1.6.1-2.2z"/><g fill="#fff"><path d="M988.7 83h-8l-1-11s-.6-2 5-2 5 2 5 2l-1 11zM990.6 94h-.8l-1-4.8h1.8zM979.6 94h-.8v-4.8h1.8zM991.6 87c0 .6-.4 1-1 1h-11.9c-.5 0-1-.5-1-1 0 0 .8-2.9 2-2.9h9.9c1.4-.1 2 2.9 2 2.9zM992.6 82c0 .5-.4.9-.9.9s-.9-.4-.9-.9v-4c0-.5.4-.9.9-.9s.9.4.9.9v4zM978.6 82c0 .5-.4.9-.9.9s-.9-.4-.9-.9v-4c0-.5.4-.9.9-.9s.9.4.9.9v4z"/></g><path fill="#fff" d="M984.8 258c-6.6 0-11.9-5.4-11.9-12s5.3-12 11.9-12c6.6 0 11.9 5.4 11.9 12s-5.4 12-11.9 12zm0-21.3c-5.1 0-9.2 4.2-9.2 9.3s4.1 9.3 9.2 9.3 9.2-4.2 9.2-9.3-4.1-9.3-9.2-9.3zM984.7 243.1c-3.7 0-6.6 1.2-8 3.6.1.7.2 1.4.5 2.1 2-1 5.7 2.8 4.5 4.6.9.3 1.8.6 2.9.6 1 0 2.1-.2 3-.5-1.2-1.7 2.4-5.5 4.4-4.5.3-.7.5-1.4.6-2.2-1.3-2.4-4.2-3.7-7.9-3.7zm.1 6.1c-1.2 0-2.1-1-2.1-2.1 0-1.2 1-2.1 2.1-2.1 1.2 0 2.1 1 2.1 2.1s-.9 2.1-2.1 2.1zm0-1.1c-.6 0-1.1-.5-1.1-1.1 0-.6.5-1.1 1.1-1.1.6 0 1.1.5 1.1 1.1 0 .6-.5 1.1-1.1 1.1zM991.6 289h-10.9c-1.1 0-2 .9-2 2v19.8c0 1.1.9 2 2 2h10.9c1.1 0 2-.9 2-2v-19.8c0-1.1-.9-2-2-2zm-7 .9h3.1v1.1h-3.1v-1.1zm2.2 22.3h-1.2v-1.4h1.2v1.4zm4.9-2.1h-11.2v-18.1h11.2v18.1z"/><g fill="#fff"><path d="M974.7 343h24v4h-24zM975.7 358c0 1.1.9 2 2 2h18c1.1 0 2-.9 2-2v-10h-22v10zm8.9-8h4.1v1.1h-4.1v-1.1z"/></g><path fill="#fff" d="M984.8 412.1c-1 1.3-2.7 2.2-4.1 2.2s-3.3-.8-4.3-2.1c-4.6 0-4.8 6.9-4.8 6.9h18c0-.1.4-7-4.8-7zM984.6 405.8c0 2.1-1.8 6.1-3.9 6.1s-3.9-4-3.9-6.1c0-2.1 1.8-3.8 3.9-3.8s3.9 1.7 3.9 3.8zM990.1 396c-3 0-5.4 1.8-5.4 4.1 0 2.1 2 3.7 4.7 4l-1.6 2.9 4.3-3.1c2-.6 3.4-2.1 3.4-3.8.1-2.3-2.4-4.1-5.4-4.1z"/><g fill="#fff"><path d="M991.2 473.3l.6-.5c-3-1.4-5.3-3-7.3-4.7-2.4 0-5-.6-6.2-2.2 1.9 1 3.9 1 4.6.9-5.8-5.2-7.4-10.3-7.4-10.3 2 3.1 4.1 5.5 6.1 7.4-.9-1.6-.4-4.6-.4-4.6 1.7 5.8 1.9 5.9 1.8 6 1.4 1.1 2.8 2.1 4 2.9-.4-1-.8-2.5-.7-5 0 0 1.1 5.3 2.8 6.6 1.4.8 2.6 1.4 3.5 1.8 1.5-2.2 1.5-8-2.1-10.3-3.9-2.5-10.4-2.6-17-9.1-2-1.9 1.7 15 7 19.7 3.2 2.9 7.5 4.1 10.7 1.4zM989.6 473.1s1.8.9 3.8 1.8c2 .9 3 .7 3.1.9.1.2.1-2.5.1-2.5s-2.8.6-5.8-1l-1.2.8z"/></g><path fill="#fff" d="M990.7 514.1l-.6-1.3c-1-2.2-2.3-4.1-3.5-5.7-1.2-1.6-2.5-3.1-4.1-4.4l-.3-.3c-.6-.6-1.2-1.1-2.1-1.5l-.4.9c.7.3 1.2.7 1.8 1.3l.3.3c.3.2.6 1.5.6 1.7v.4c0 .9-.1 1.9-.5 3-.7 2.3-2.3 4.2-4 5.7l-.9-.1c-3 0-5.4 2.4-5.4 5.4s2.4 5.4 5.4 5.4c3 0 5.4-2.4 5.4-5.4 0-2.3-1.4-4.2-3.3-5 1.6-1.5 3.1-3.4 3.8-5.7.4-1.2.6-2.3.5-3.3 0-.1 1.6 1.3 2.4 2.3 1.1 1.5 2.4 3.4 3.4 5.6.1.2.2.5.3.8-2.7.3-4.8 2.6-4.8 5.4 0 3 2.4 5.4 5.3 5.4s5.3-2.4 5.3-5.4c.1-2.9-1.9-5.2-4.6-5.5zm-16.5 8.8c-1-.6-1.6-1.9-1.6-3.4 0-1.4.6-2.7 1.4-3.3.4-.3.8.2.4.8-.5.7-.7 1.6-.7 2.6 0 1.1.3 2 .8 2.7.4.3 0 .8-.3.6zm13 0c-1-.6-1.6-1.9-1.6-3.4 0-1.4.6-2.7 1.4-3.3.4-.3.8.2.4.8-.5.7-.7 1.6-.7 2.6 0 1.1.3 2 .8 2.7.4.3 0 .8-.3.6zM995.4 570.6c-.3-.1-.8-.4-1.5-.6.7-.2 1.2-.5 1.5-.6 1.5-.8 1.7-3.2.4-5.4-1.3-2.2-3.6-3.2-5.2-2.4-.3.1-.7.5-1.3.9.1-.7.2-1.2.2-1.5 0-1.6-2.1-3-4.8-3s-4.8 1.3-4.8 3c0 .3.1.8.2 1.5-.6-.4-1-.8-1.3-.9-1.5-.8-3.8.3-5.2 2.4-1.3 2.2-1.2 4.6.4 5.4.3.1.8.4 1.5.6-.7.2-1.2.5-1.5.6-1.5.8-1.7 3.2-.4 5.4 1.3 2.2 3.6 3.2 5.2 2.4.3-.1.7-.5 1.3-.9-.1.7-.2 1.2-.2 1.5 0 1.6 2.1 3 4.8 3 2.7 0 4.8-1.3 4.8-3 0-.3-.1-.8-.2-1.5.6.4 1 .8 1.3.9 1.5.8 3.8-.3 5.2-2.4 1.3-2.2 1.1-4.6-.4-5.4zm-10.7 3.4c-2.2 0-4-1.8-4-4s1.8-4 4-4 4 1.8 4 4-1.8 4-4 4zM210.8 342.2c-1 1-1.6 3.5-.4 4.7l1.5 1.5-14.2 14.2c-.3.3-.3.9.1 1.3s.9.4 1.3.1l1.2-1.2 2.1 2.1.7-.7.6-.6.7-.7-2.1-2.1 1.8-1.8 1.5 1.5 1.3-1.3-1.5-1.5 7.8-7.8 1.5 1.5c1.2 1.2 3.7.6 4.7-.4s1.4-3.5.2-4.7l-4.4-4.4c-1.2-1.3-3.4-.8-4.4.3zm7.9 5.6c.5.5-.3 1.8-.4 2-.2.2-1.5.9-2 .4l-4.8-4.8c-.5-.5.3-1.8.4-2 .2-.2 1.5-.9 2-.4l4.8 4.8zM210.3 289.8c-1.7 1.7-2 4.2-1.2 6.3l-12.2 12.2s-.8 3.4 2.7 2.5c.1-.1 1.9-.9 1.9-.9v-3l3 .1 1-1-.3-3.1h3.3v-3.1l2.1 1.2 1.7-1.5c2.1.9 4.7.5 6.4-1.3 2.3-2.3 2.3-6 0-8.3s-6.1-2.4-8.4-.1zm6.8 4.9c.6.6.6 1.4.1 2-.5.5-1.4.5-2-.1l-3.2-3.2c-.6-.6-.6-1.4-.1-2s1.4-.5 2 .1l3.2 3.2z"/><g fill="#fff"><path d="M215.7 235c0-1.1-.9-2-1.9-2h-5.1c-1.1 0-1.9.9-1.9 2v6.9s.8.9 2 2c1.2 1.2 1.2.9 0 2.1l-2 2v6.9c0 1.1.9 2 1.9 2h5.1c1.1 0 1.9-.9 1.9-2v-7l-2-2c-1.2-1.2-1.2-.8 0-2l2-2v-6.9zm-1 6.1l-2 2.1s-1 .7-1 1.8l1 1.8 2 2.2v6c0 .6-.4 1-1 1h-5c-.6 0-1-.4-1-1v-6l2-2.2s1-.9 1-1.9l-1-1.8-2-2.1v-6c0-.6.4-1 1-1h5c.6 0 1 .4 1 1v6.1zM213.7 254c0 .6-.4 1-1 1h-3c-.6 0-1-.4-1-1v-4h5v4zM213.7 240l-2.5 3-2.5-3v-1h5z"/></g><g fill="#fff"><path d="M220.6 177h-5.9c-.6 0-1 .5-1 1l2.4 2.4-2.9 2.9c-.3.3-.4.7-.4 1.1s.1.8.4 1.1c.6.6 1.5.6 2.1 0l2.9-2.9 2.4 2.4c.6 0 1-.5 1-1v-5.9c0-.6-.4-1.1-1-1.1zM220.6 193l-2.5 2.4-3-3c-.6-.6-1.5-.6-2.1 0-.6.6-.6 1.5 0 2.1l3 3-2.4 2.4c0 .6.5 1 1 1h5.9c.6 0 1-.5 1-1v-5.9c.1-.5-.3-1-.9-1zM203.2 180.5l2.4-2.4c0-.6-.5-1-1-1h-5.9c-.6 0-1 .5-1 1v5.9c0 .6.5 1 1 1l2.4-2.4 3 3c.3.3.7.4 1.1.4.4 0 .8-.1 1.1-.4.6-.6.6-1.5 0-2.1l-3.1-3zM205.1 191.5l-3.9 3.9-2.4-2.4c-.6 0-1 .5-1 1v5.9c0 .6.5 1 1 1h5.9c.6 0 1-.5 1-1l-2.4-2.4 3.9-3.9c.6-.6.6-1.5 0-2.1-.6-.6-1.6-.6-2.1 0z"/></g><g fill="#fff"><path d="M210.7 413l1.9-1.8-1.9-2zM210.8 401.1l-.1 4 2-2zM210.1 395c-3.6 0-6.5 2.3-6.5 5.2v13.6c0 2.9 2.9 5.2 6.5 5.2s6.5-2.3 6.5-5.2v-13.6c0-2.9-2.9-5.2-6.5-5.2zm4.8 16.1l-5.2 4.8v-7.8l-3.1 3.1-.9-1.1 2.9-3-3-3 1-1 3.1 2.9v-7.8l5.2 4.9-4.2 4.1 4.2 3.9z"/></g><g fill="#fff"><path d="M216.8 69h-13.2c-.5 0-.9.4-.9.9v2.1c0 .5.4.9.9.9h13.2c.5 0 .9-.4.9-.9v-2c-.1-.5-.5-1-.9-1zM212.5 84c.1-.1.2-.2.2-.4s0-.3-.1-.4l-1.9-1.9v-5.4h2v-2h-4.9v2h2v1.5l-1.9 1.7c-.1.1-.2.2-.2.4 0 .1 0 .3.1.4l1.9 1.9v3l-1.8 1.3c-.1.1-.2.2-.2.4s.1.3.2.4l1.8 1.5v4.1c0 .3.2.5.5.5s.4-.1.4-.4v-1.2l1.8-1.5c.1-.1.2-.2.2-.4s-.1-.3-.2-.4l-1.7-1.3v-2.4l1.8-1.4z"/></g><g fill="#fff"><path d="M207.8 128.9l-2.1-3.5c-.4-.4-1-.4-1.4 0v1.4l-4.9 4.9h-1.4c-.4.4-.4 1 0 1.4l3.5 2.1c.4.4 1 .4 1.4 0l4.9-4.9c.4-.4.3-1 0-1.4zm-4.9 4.8c-.3.3-.7.2-1.1-.1h-1c-.3-.3-.4-.8-.1-1.1l4.4-4.4c.3-.3.7-.2 1.1.1v1c.3.3.4.8.1 1.1l-3.4 3.4zM217.7 147.4l-.7.6 4.6-2.5-13.6-13.5-3.5 3.5.6.7.7-.7 1.5 1.4-.7.7.6.6.7-.7 1.5 1.5-.7.7.6.6.7-.7 1.5 1.5-.7.7.6.6.7-.7 1.4 1.5-.6.7.6.6.6-.7 1.5 1.5-.7.7.6.6.7-.7z"/></g><path fill="#fff" d="M213.6 18.9c0-1.4-.1-1.9-1.5-1.9h-9.9c-1.4 0-1.5.5-1.5 1.9h2v4.1l-5 15.4c0 1.4 1.1 2.5 2.5 2.5h13.9c1.4 0 2.5-1.1 2.5-2.5l-5-15.5v-4h2zm1 18.1c.4 1.3-.3 2.1-2.1 2.1h-10.7c-2 0-2.5-.9-2.1-2.1l4.8-14.1v-4l5.1-.1v4l5 14.2z"/><g fill="#fff"><path d="M214.6 466h-8.9v-2l2-1v-4l-2-1.2v-2.7h8.9v2.9l-2 1v4l2 1zM211.6 466h-2.9v2.9l1.5 7.9 1.4-7.9zM205.7 453h8.9v.9h-8.9z"/></g><path fill="#fff" d="M208.7 501c-6.6 0-11.9 5.4-11.9 12s5.3 12 11.9 12c6.6 0 11.9-5.4 11.9-12s-5.3-12-11.9-12zm4.4 18l-4.3-3.1-4.3 3.1 1.6-5-4.3-3.1h5.3l1.6-5 1.6 5h5.3l-4.3 3.1 1.8 5zM219 558.7c-4.7-4.7-12.2-4.7-16.9 0-4.7 4.7-4.6 12.2 0 16.9 4.7 4.7 12.2 4.7 16.9 0 4.7-4.7 4.7-12.3 0-16.9zm-4.7 13.7l-3.7-3.7-3.7 3.7c-.7.7-1.2 1.3-2 .5s-.2-1.3.5-2l3.7-3.7-3.7-3.7c-.7-.7-1.3-1.2-.5-2s1.3-.2 2 .5l3.7 3.7 3.7-3.7c.7-.7 1.2-1.3 2-.5s.2 1.3-.5 2l-3.7 3.7 3.7 3.7c.7.7 1.3 1.2.5 2s-1.3.1-2-.5zM162.6 180h-22c-.5 0-1 .4-1 1v13c0 .5.4 1 1 1h22c.5 0 1-.4 1-1v-13c0-.6-.5-1-1-1zm-.9 14l-5-6-5.1 4-5-4-5 6h-1l5-7-5-5v-1l11 9 11-9v1l-4.9 5 4.9 7h-.9zM162.5 133.3l-10.9-8.2-11 8.2c-.5 0-1 .4-1 1v12.7c0 .5.4 1 1 1h21.9c.5 0 1-.4 1-1v-12.7c0-.6-.5-1-1-1zm-.9 13.8l-5-6-5 4-5-3.9-5 6h-1l5-7-5-5v-1l11-7.9 11 8v1l-5 5 5 6.9-1-.1z"/><g fill="#fff"><path d="M152.5 69.1h-8.8v10.8l7.9 8 7.9-8v-5.9h-7v-4.9zm4.1 12.9h-10.1v-1.2h10.1v1.2zm.1-2h-10.2v-1.1h10.2v1.1zm-4.1-3.1v1.1h-6.1v-1.1h6.1zM153.7 69v4h6zM162.5 77.1l-3.8-2.9v1l3.9 2.9v1l-5 5 5 7h-1l-5-6-4.9 4.2-5-4.2-5 6h-1l5-7-5-5v-1l6.9-5v-1.1l-6.9 5.2c-.5 0-1 .4-1 1v12.8c0 .5.4 1 1 1h21.9c.5 0 1-.4 1-1v-12.9c-.1-.6-.6-1-1.1-1z"/></g><path fill="#fff" d="M93.7 287.1c-3.9 0-7 3.2-7 7.1 0 1 .2 2 .6 2.8l6.5 11 6.3-11c.4-.9.6-1.8.6-2.8-.1-4-3.2-7.1-7-7.1zm0 12.1c-2.8 0-5.1-2.3-5.1-5.1s2.3-5.1 5.1-5.1 5.1 2.3 5.1 5.1-2.3 5.1-5.1 5.1zm2.9-5.2c0 1.6-1.3 2.9-3 2.9s-3-1.3-3-2.9c0-1.6 1.3-2.9 3-2.9s3 1.3 3 2.9zM89.6 305c-2.6.5-3.9 1.6-3.9 2.4 0 1.1 3 2.8 8 2.8s8-1.6 8-2.8c0-.8-1.3-1.9-3.9-2.4v-.8c2.8.5 4.9 1.6 4.9 3.3 0 2.4-4.6 3.6-9 3.6s-9-1.3-9-3.6c0-1.6 2.1-2.8 4.9-3.3v.8zM92.7 350.1h1.8v11.9h-1.8zM93.6 341c-3.3 0-6 2.7-6 6s2.7 6 6 6 6-2.7 6-6-2.7-6-6-6zm.5 2.1c-2.4 0-4.3 2-4.3 4.5 0 1-.9.5-.9-1 0-2.5 1.9-4.5 4.4-4.5 1.3 0 1.7 1 .8 1zM91.6 358.9c-3.7.4-5.9 1.6-5.9 2.6 0 1.1 3 2.6 8 2.6s8-1.5 8-2.6c0-1-2.2-2.3-6-2.6v-.8c3.7.3 7 1.6 7 3.5 0 2.3-4.6 3.5-9 3.5s-9-1.2-9-3.5c0-1.9 3.3-3.1 6.9-3.4v.7z"/><g fill="#fff"><path d="M145.7 307.6v2.4h3.7c.7 0 1.2-.6 1.2-1.3v-3.7h-2.4c-1.4.1-2.5 1.2-2.5 2.6zM150.6 296v-.5c0-3-2.5-5.5-5.5-5.5s-5.5 2.5-5.5 5.5c0 1.7.8 3.2 2 4.2v8.9c0 .7.5 1.2 1.2 1.2h1.7v-2.5c0-2.3 1.1-3.5 3.5-3.5h2.5l.1-7.8zm1.1 8.9h11c.6 0 1-.4 1-1v-6.9c0-.6-.4-1-1-1h-11v8.9zm-6.4-5.7c-2 0-3.7-1.7-3.7-3.7s1.7-3.7 3.7-3.7 3.7 1.7 3.7 3.7-1.7 3.7-3.7 3.7zm16.5.8h-2.2v-1.2h2.2v1.2z"/></g><g fill="#fff"><path d="M155.3 401c.3-.3.3-.9 0-1.2l-3.6-4.5c-.3-.3-.9-.3-1.2 0l-3.6 4.5c-.3.3-.3.9 0 1.2h2.7v18h2.9v-18h2.8zM160.9 403.1l-4.5.5c-.4 0-.7.3-.7.7l1.2 1.2-2.2 2.3v11.2h2.9v-10l1.4-1.4 1.4 1.4c.4 0 .7-.3.7-.7l.5-4.6c-.1-.3-.4-.6-.7-.6zM146.6 409.3c0-.4-.3-.7-.7-.7l-4.6-.5c-.4 0-.7.3-.7.7l.5 4.6c0 .4.3.7.7.7l1.3-1.3 1.5 1.5v4.8h2.9v-6l-2.3-2.4 1.4-1.4z"/></g><path fill="#fff" d="M100 17.7c-.5-.2-1-.4-1.6-.5-.6-.1-1.1-.2-1.7-.2l-1.2.1c-.7.1-1.4.3-2 .7-1.3.6-2.3 1.6-2.9 2.9-.1.1-.2.3-.2.4l-.7 1.7-2 4.2-.9 2.1-1.9 4.3-.9 2.2-1 2.4c-.5 1.1 0 2.3 1.1 2.8.3.1.6.2.9.2.8 0 1.6-.5 1.9-1.3l.1-.2.9-2.1 1.9-4.3.9-2.1 1.9-4.3.9-2.1.7-1.7c.3-.8 1.1-1.3 2-1.4l.6-.1c.5 0 1.1.1 1.6.3.4.2.7.4 1 .6l.9 1.2c.3.6.3 1.3.1 2-.2.4-.2.9-.1 1.3.1.6.5 1.2 1.1 1.5 0 0 .1 0 .1.1.7.3 1.6.2 2.2-.3.2-.2.5-.5.6-.8.2-.6.4-1.1.5-1.7.2-3.2-1.6-6.5-4.8-7.9zm-13.7 20.9l-1.6-2.1.9-2.1 1.6 2.1-.9 2.1zm2.7-6.4l-1.6-2.2.9-2.1 1.6 2.1-.9 2.2zm2.8-6.5l-1.6-2.1.9-2.1 1.6 2.1-.9 2.1zm4.9-5.4c-.4 0-.8.1-1.2.2l-1.5-1.9c.6-.3 1.3-.5 2.1-.5l1.9 2.5c-.5-.2-.9-.3-1.3-.3zm5 7.1c-.6-.3-.8-1-.6-1.6.1-.3.2-.5.2-.8l1.6 2.1c-.2.4-.7.5-1.2.3zm-2.3-8.9c.1 0 .1 0 .2.1 2.4 1.1 4 3.3 4.1 5.7l-4.3-5.8z"/><g fill="#fff"><path d="M104.7 75.9h-22l-1-3.8h24zM100.5 89.9h-13.8l-3-12.8h19.8z"/></g><path fill="#fff" d="M84.1 146.9l-1.3-1.6 20.5-16.2 1.2 1.6zM87.5 132.2h-2.7c-2.6 0-3.2 1.3-3.2 4v1.7c0 2.8.5 4 3.2 4h.6l2.1-1.7v-8zM100.4 126.4c0-.8-.7-1.4-1.6-1.4l-8.4 5.5c-.9 0-1.6.6-1.6 1.4v7l11.6-9.2v-3.3zM90.5 143.4h.3l8.2 5.5c.9 0 1.6-.6 1.6-1.4v-12.2l-10.1 8.1zM162.7 232.1l-15 3v14.2c-1.1-.3-2.4-.3-3.7.3-2.4 1-3.7 3.1-3 4.7.7 1.6 3.1 2.2 5.5 1.2 1.8-.7 3.1-2.2 3.2-3.5v-13.4l11-2.2v9.9c-1.1-.3-2.4-.3-3.7.3-2.4 1-3.7 3.1-3 4.7.7 1.6 3.1 2.2 5.5 1.2 1.8-.7 3.1-2.2 3.2-3.5v-16.9zM93.6 177.1l-1.9-1.1v17.2c-1.1-.3-2.5-.3-3.8.3-2.4 1-3.7 3.1-3.1 4.7.7 1.6 3.2 2.2 5.5 1.2 1.8-.7 3.1-2.2 3.3-3.5v-14.7c3.9 1.2 6.7 2.5 6.7 6.4 0 1.4 2.3 2.7 2.3-2.7 0-4.5-3.9-7.3-9-7.8z"/><g fill="#fff"><path d="M86.7 242h-.1.1l-5-3.1v.9l2.7 3.7c-.4.5-.7 1.1-.7 1.5v7.9h2.9v-3.1l4-2h5l1 5.1h1.9v-9l-2-2h-9.8zM102.3 239.1l-.6-2.1-4 3.9 2 2.1 4.2.9 1.8-1.3z"/></g><g fill="#fff"><path d="M139.7 34.2l6.8 2.8v-17.8l-6.8-2.2zM163.7 18.5l-7-1.4v10.8c2.8 0 5 2.3 5 5.2 0 .7-.2 1.4-.4 2.1l-.6 1 2.9.9v-18.6zM151.6 33.1c0-2.5 1.8-4.6 4.1-5.1v-10.9l-7.9 2.1v17.8l4.7-1.2-.4-.6c-.4-.7-.5-1.4-.5-2.1zM156.7 29c-2.2 0-4 1.8-4 4 0 .6.1 1.1.3 1.6l3.7 6.2 3.6-6.2c.2-.5.3-1 .3-1.6.1-2.2-1.7-4-3.9-4zm0 6.4c-1.3 0-2.4-1.1-2.4-2.4s1.1-2.4 2.4-2.4 2.4 1.1 2.4 2.4-1.1 2.4-2.4 2.4zm1-2.4c0 .5-.4 1-1 1-.5 0-1-.4-1-1 0-.5.4-1 1-1 .5 0 1 .4 1 1z"/></g><g fill="#fff"><path d="M163.6 342.1h-2.9v2h-3v3h-3v3h-3v3h-3v3h-3v3h-6v3.9h5.9l18.1-17zM150.7 345.1h-5l2.2 1.4-3.2 3.2 1.4 1.3 3.1-3.1 1.4 2.1z"/></g><g fill="#fff"><path d="M105.6 397h-2.9v2h-3v3h-3v3h-3v3h-3v3h-3v3h-6v3.9h5.9l18.1-17zM87.7 404.9h4.9l-2.1-1.4 3.2-3.2-1.4-1.3-3.1 3.2-1.5-2.2z"/></g><g fill="#fff"><path d="M156.6 507.1c0 2.7-2.2 7.9-5 7.9s-5-5.2-5-7.9 2.2-4.9 5-4.9 5 2.1 5 4.9zM158.6 524v-.9h-2v-4.1h2v-2h3c-.9-1.1-2.5-1.9-4.5-1.9-1.3 1.7-5.5 2.2-5.5 2.2s-4.3-.4-5.6-2.1c-6.1 0-6.3 8.9-6.3 8.9l18.9-.1zM163.7 520h-2v-2h-2v2h-2v2h2v1.9h2v-1.9h2z"/></g><g fill="#fff"><path d="M156.7 458c0 2.7-2.2 7.9-5 7.9-2.7 0-5-5.2-5-7.9s2.2-4.9 5-4.9 5 2.2 5 4.9zM156.6 472h6.6c-.7-2.4-2.4-5.9-6.1-5.9-1.3 1.7-5.5 2.2-5.5 2.2s-4.3-.4-5.6-2.1c-6.1 0-6.3 8.9-6.3 8.9h16.9v-3.1zM157.7 473h5.9v2h-5.9z"/></g><path fill="#fff" d="M156.6 562.1c0 2.7-2.2 7.9-4.9 7.9s-4.9-5.2-4.9-7.9 2.2-4.9 4.9-4.9 4.9 2.1 4.9 4.9zM153.2 575.7l3.6-3.6 1.9 2 2.5-2.5c-.9-1-2.1-1.5-4-1.5-1.3 1.7-5.5 2.2-5.5 2.2s-4.3-.4-5.6-2.1c-6.1 0-6.3 8.9-6.3 8.9h16.6l-3.2-3.4zM162.3 572.7l-3.6 3.5-2.1-2.1-1.4 1.4 3.5 3.5 5-4.9zM93.6 452c-6.6 0-11.9 5.3-11.9 11.9 0 6.6 5.3 11.9 11.9 11.9s11.9-5.3 11.9-11.9c0-6.6-5.3-11.9-11.9-11.9zm4.3 13.1h-3.2v3.2c0 1 .1 1.8-1.1 1.8-1.2 0-1.1-.8-1.1-1.8v-3.2h-3.2c-1 0-1.8.1-1.8-1.1 0-1.2.8-1.1 1.8-1.1h3.2v-3.2c0-1-.1-1.8 1.1-1.8 1.2 0 1.1.8 1.1 1.8v3.2h3.2c1 0 1.8-.1 1.8 1.1 0 1.1-.8 1.1-1.8 1.1z"/><g fill="#fff"><path d="M91.7 519l2 2v4h.9v-4l2-2zM94.1 501.1c-4.7 0-8.5 3.8-8.5 8.5s3.8 8.5 8.5 8.5 8.5-3.8 8.5-8.5-3.8-8.5-8.5-8.5zm-1.4 15.9h-1.1v-1h1.1v1zm2 0h-1.1v-1h1.1v1zm2 0h-1.1v-1h1.1v1zm0-2h-1.1v-1h1.1v1zm-2 0h-1.1v-1h1.1v1zm4-4h-1.1v-1h1.1v1zm-2 2h-1.1v-1h1.1v1zm2 2h-1.1v-1h1.1v1zm0-2h-1.1v-1h1.1v1zm2 0h-1.1v-1h1.1v1zm0-2h-1.1v-1h1.1v1zm-1.1-2v-1h1.1v1.1h-1.1z"/></g><g fill="#fff"><path d="M91.7 557h2.9v1.9h-2.9zM95.7 564c-1.5-.9-1.1-4-1.1-4h-2.8s.5 3.2-1.1 4c-1.2.6-1.9 1.2-1.9 3.2v12.6c0 .6.5 1.1 1.1 1.1h6.6c.6 0 1.1-.5 1.1-1.1v-12.6c.1-2.1-.7-2.5-1.9-3.2zm1.1 16h-1.1v-14.1h1.1v14.1z"/></g><path fill="#fff" d="M24.7 347.1v10.9h17.9v-10.9h-17.9z"/><g fill="#fff"><path d="M29.7 360h-7v-3h-1v4h8zM22.7 345h7v-1h-8v4h1zM44.7 360h-7v1h8v-4h-1zM37.7 344v1h7v3h1v-4z"/></g><g fill="#fff"><path d="M44.7 20h-1c-.6 0-1 .4-1 1s.4 1 1 1v4l-12.2 1.9c-.5.1-.8.5-.8 1v3.1c-.6 0-1 .4-1 1v6c0 .6.4 1 1 1h2c.6 0 1-.4 1-1v-6c0-.6-.4-1-1-1v-2.3l12.2-1.9c.5-.1.8-.5.8-1v-5.8c0-.5-.5-1-1-1zM41.7 23v-4c0-1.1-.9-2-2-2h-16c-1.1 0-2 .9-2 2v4c0 1.1.9 2 2 2h16c1.1 0 2-.9 2-2z"/></g><g fill="#fff"><path d="M32.7 300h2v12h-2zM33.7 288l-12 9v2h1v-1h2v1h2v-1h2v1h2v-1h2v1h2v-1h2v1h2v-1h2v1h2v-1h2v1h1v-2zM30.7 310h6v1h-6zM26.7 311h14v1h-14z"/></g><g fill="#fff"><path d="M33.7 244h2v7.9h-2zM34.7 232l-12 9v2h1v-1h2v1h2v-1h2v1h2v-1h2v1h2v-1h2v1h2v-1h2v1h2v-1h2v1h1v-2zM26 248h-3.3v2h2.5l5 5h.5v1h2v-1h1v1h2v-1h6v1h2v-1h1v-2h-13.7z"/></g><path fill="#fff" d="M41.8 130.1c-2-.6-5.5 1.6-8.2 1.6-2.7 0-6.2-2.2-8.2-1.6-2.9.9-3.8-.9-3.8.7 0 0-.3 8.7 5 10 3 .4 5.2 2.2 6.9 2.2 1.8 0 3.3-1.6 7-2.2 4.8-.6 5-9.9 5-9.9.1-1.6-.8.1-3.7-.8zm-10.4 6.9c-.3-.1-.6-.4-1.1-.2-.7.2-1.8.2-3-.2-1.8-.6-2.8-3.6-2.8-3.6s2.6-.2 4.4.4c.8.3 1.1.4 1.6.9 1.2.9 1.2 2.8.9 2.7zm8-.5c-1.3.4-2.5.5-3.4.2-.5-.2-.9.1-1.2.2-.3.1-.3-1.9.9-2.8.6-.5.8-.6 1.8-.9 2.1-.7 5.1.4 5.1.4s-1.1 2.2-3.2 2.9zM46.4 179.8c.2-1.2.2-2 .2-2 0-1.6-.9.2-3.8-.7-2-.6-5.5 1.6-8.2 1.6-2.7 0-6.2-2.2-8.2-1.6-2.9.9-3.8-.9-3.8.7 0 0-.3 7.7 5 9 3 .4 5.2-.8 6.9-.8 1.8 0 3.3 1.4 7 .8 1-.1 1.8-.6 2.5-1.3l1 13.4 1.4-19.1zm-14 4.2c-.3-.1-.6-.4-1.1-.2-.7.2-1.8.2-3-.2-1.8-.6-2.8-3.6-2.8-3.6s2.6-.2 4.4.4c.8.3 1.1.4 1.6.9 1.2.9 1.2 2.8.9 2.7zm8-.5c-1.3.4-2.5.5-3.4.2-.5-.2-.9.1-1.2.2-.3.1-.3-1.9.9-2.8.6-.5.8-.6 1.8-.9 2.1-.7 5.1.4 5.1.4s-1.1 2.2-3.2 2.9z"/><g fill="#fff"><path d="M41.7 89.2h-18.1v-11.4h7c.1-.4 1.2-1.4 2.4-1.8h-11.3v15h21.9v-8.6l-1.9 1.7v5.1zM45.3 77.2l-5.4-4.9c-.4-.4-.9-.5-1.3-.1 0 0 .1 3.3 0 3.3-1 0-1.9.2-2.7.5-1.2.4-2.3 1.1-3.2 1.9-1.8 1.7-3 4.1-3 6.8 0 1.8.8 1.1 1.1.5 1.5-2.9 4.5-4.9 7.9-4.9v3.2c.4.4.9.4 1.3.1l5.3-4.9c.4-.3.4-1 0-1.5z"/></g><path fill="#fff" d="M39.6 406.2l2-.4-2-1.3v-3.2c0-3.5-2.7-7.2-6.2-7.2h-1.4c-3.5 0-6.3 3.8-6.3 7.3v3.2l-2 1.3 2 .2v7l-1 2.4 3 .4 3 .7 2 1.3 2-1.3 3-.6 2.9-.4-1-2.5v-6.9zm-7.9 8.7l-4.1-.9v-8l4.1.5v8.4zm6-.7l-4.1.7v-8.3l4.1-.5v8.1zm-3.5-13.2c.2-.3.3-.7.3-1.1 0-1.1-.9-1.9-1.9-1.9s-1.9.9-1.9 1.9c0 .4.1.8.3 1.1l-4.4 2.9v-2.6c0-2.9 2.5-6.4 5.4-6.4h1.4c2.9 0 5.3 3.5 5.3 6.4v2.6l-4.5-2.9zM46.7 464.1c0-6.6-5.3-12-11.9-12s-11.9 5.4-11.9 12 5.3 12 11.9 12 11.9-5.4 11.9-12zm-17.9 4.1c-.3-.3-.3-1.3 0-1.7l5.4-8.5c.3-.3.8-.3 1.2 0l5.4 8.5c.3.3.3 1.3 0 1.7h-12z"/><g fill="#fff"><path d="M21.7 521h5v-15h-5v15zm3-2h-2.1v-1.1h2.1v1.1zm0-2h-2.1v-1.1h2.1v1.1zm-2.1-9.1h2.1v1.1h-2.1v-1.1zm0 2h2.1v1.1h-2.1v-1.1zm1.6 1.9c1 0 1.8.8 1.8 1.8s-.8 1.8-1.8 1.8-1.8-.8-1.8-1.8.8-1.8 1.8-1.8zM29.7 510h13v7h-13zM27.7 506v15h18v-15h-18zm16 12h-15v-9h15v9z"/></g><g fill="#fff"><ellipse cx="28.7" cy="578.1" rx="2" ry="1.9"/><ellipse cx="40.7" cy="578.1" rx="2" ry="1.9"/><path d="M44.7 573h-18v-12.2l-3.2-4.4c-.3-.4-.9-.5-1.4-.2-.4.3-.5.9-.2 1.4l2.8 3.9v11.5h-.1c-.6 0-1 .4-1 1 0 .5.4 1 1 1h20c.6 0 1-.4 1-1 .1-.5-.4-1-.9-1zM31 567.3v-.1zM31.6 571c0 .5-.4 1-.9 1h-2.2c-.5 0-.9-.4-.9-1v-10c0-.5.4-1 .9-1h2.2c.5 0 .9.4.9 1v10zM37.6 571c0 .5-.4 1-.9 1h-2.2c-.5 0-.9-.4-.9-1v-8c0-.5.4-1 .9-1h2.2c.5 0 .9.4.9 1v8zM43.6 570.9c0 .5-.4 1-.9 1h-2.2c-.5 0-.9-.4-.9-1v-6c0-.5.4-1 .9-1h2.2c.5 0 .9.4.9 1v6z"/></g><g fill="#fff"><path d="M266.6 141.1v-2.1h-3.9v2.1h-3.6c-.5.5-.5 1.3 0 1.9l4.6 4.6c.5.5 1.4.5 2 0l4.6-4.6c.5-.5.5-1.3 0-1.9h-3.7zM262.7 131.9v2h3.9v-2h3.6c.5-.5.5-1.4 0-1.9l-4.5-4.6c-.5-.5-1.4-.5-2 0l-4.6 4.6c-.5.5-.5 1.4 0 1.9h3.6zM252.7 135h23.9v2.9h-23.9z"/></g><path fill="#fff" d="M829.4 237.4l-4.1-4.1c-.4-.4-1-.4-1.4 0v2.9h-13.1c-1.1 0-2 .9-2 2v12.9h-2.9c-.4.4-.4 1 0 1.4l4.2 4.2c.4.4 1 .4 1.4 0l4.1-4.1c.4-.4.4-1.1 0-1.5h-3v-9.1c0-1.1.9-2 2-2h9.2v3c.4.4 1 .4 1.4 0l4.2-4.2c.4-.4.4-1 0-1.4zM766.3 292.2l-3.8-3.8c-.4-.4-1.4-.4-1.8 0v2.7c-2.2.1-4.7 1.4-6 3.2-1.3-1.8-3.8-3.1-6-3.2v-2.7c-.4-.4-1.4-.4-1.8 0l-3.8 3.8c-.4.4-.4 1.2 0 1.6l3.8 3.8c.4.4 1.4.4 1.8 0v-2.6c2.1.1 4 1.9 4 4v11h4v-11c0-2.1 1.9-3.8 4-4v2.6c.4.4 1.4.4 1.8 0l3.8-3.8c.5-.4.5-1.2 0-1.6z"/><g fill="#fff"><path d="M540.7 30h1v1h-1zM546.7 30h.9v1h-.9zM549.7 31h.9v1h-.9zM548.7 30h.9v1h-.9zM547.7 31h.9v1h-.9zM544.7 30h.9v1h-.9zM541.7 31h.9v1h-.9zM542.7 30h1v1h-1zM543.7 31h.9v1h-.9zM545.7 31h.9v1h-.9zM545.7 29h.9v1h-.9zM550.7 30h1v1h-1zM543.7 29h.9v1h-.9zM541.7 29h.9v1h-.9zM547.7 29h.9v1h-.9zM551.7 31h.9v1h-.9zM552.7 30h1v1h-1zM549.7 29h.9v1h-.9zM551.7 29h.9v1h-.9zM554.6 27h-14.9c-.6 0-1 1-1 1l-2 7.9c0 .6.5 1 1 1h18.9c.6 0 1-.5 1-1l-2-7.9s-.4-1-1-1zm-15 3h1v-1h-1v-1h1.1v1h.9v-1h1.1v1h.9v-1h1.1v1h.9v-1h1.1v1h.9v-1h1.1v1h.9v-1h1.1v1h.9v-1h1.1v1h.9v-1h1.1v1h-1v1h1v1h-1v1h-1v1h-1.1v-1h-.9v1h-1.1v-1h-.9v1h-1.1v-1h-.9v1h-1.1v-1h-.9v1h-1.1v-1h-.9v1h-1.1v-1h-1v-1h-1v-1zm15.1 5.1h-15.1v-1.1h15.1v1.1z"/></g><path fill="#fff" d="M556.7 40h-19l-1-1.9h21zM550.7 24c0 1.1-1.9 2-3.6 2s-3.5-.9-3.5-2h-4.9v3h17v-3h-5zM553.6 16h-12.9v7h12.9v-7zm-1.9 3.9v1.2h-9.2v-1.2h9.2zm-3-2v1.2h-6.2v-1.2h6.2zM535.7 22.1h1.9v2.9h-1.9zM556.7 22.1h1.9v2.9h-1.9zM538.7 22.1h16.9v.9h-16.9zM535.7 27h4.2v1h-4.2zM535.7 27h1v2.9h-1z"/><g fill="#fff"><path d="M315.1 355.9c-1.7 1.7-1.8 4.5 0 6.3l.5.5c1.7 1.7 4.5 1.7 6.3 0l2.9-2.9-6.8-6.7-2.9 2.8zM333.5 351.1l2.8-2.8c1.8-1.8 1.8-4.6 0-6.3l-.5-.5c-1.7-1.7-4.6-1.7-6.3 0l-2.8 2.8 6.8 6.8zM330.3 349.7l-2-2-2.7-2.7-7 7 7.1 7.1 7-7-2.4-2.4zm-6.7.3c.3-.3.8-.3 1.1 0 .3.3.3.8 0 1.1-.3.3-.8.3-1.1 0-.3-.3-.3-.8 0-1.1zm2 2c.3-.3.8-.3 1.1 0 .3.3.3.8 0 1.1-.3.3-.8.3-1.1 0-.3-.3-.3-.8 0-1.1zm2 2c.3-.3.8-.3 1.1 0 .3.3.3.8 0 1.1-.3.3-.8.3-1.1 0-.3-.4-.3-.9 0-1.1zm-1-4c.3-.3.8-.3 1.1 0 .3.3.3.8 0 1.1-.3.3-.8.3-1.1 0-.3-.4-.3-.9 0-1.1zm2 2c.3-.3.8-.3 1.1 0 .3.3.3.8 0 1.1-.3.3-.8.3-1.1 0-.3-.4-.3-.9 0-1.1zm-4-4c.3-.3.8-.3 1.1 0 .3.3.3.8 0 1.1-.3.3-.8.3-1.1 0-.3-.4-.3-.9 0-1.1zm-3 3c.3-.3.8-.3 1.1 0 .3.3.3.8 0 1.1-.3.3-.8.3-1.1 0-.3-.4-.3-.9 0-1.1zm2 2c.3-.3.8-.3 1.1 0 .3.3.3.8 0 1.1-.3.3-.8.3-1.1 0-.3-.4-.3-.9 0-1.1zm2 2c.3-.3.8-.3 1.1 0 .3.3.3.8 0 1.1-.3.3-.8.3-1.1 0-.3-.4-.3-.9 0-1.1zm-2 0c.3-.3.8-.3 1.1 0 .3.3.3.8 0 1.1-.3.3-.8.3-1.1 0-.3-.4-.3-.9 0-1.1zm-2-2c.3-.3.8-.3 1.1 0 .3.3.3.8 0 1.1-.3.3-.8.3-1.1 0-.3-.4-.3-.9 0-1.1zm5-5c.3-.3.8-.3 1.1 0 .3.3.3.8 0 1.1-.3.3-.8.3-1.1 0-.3-.4-.3-.9 0-1.1zm2 2c.3-.3.8-.3 1.1 0 .3.3.3.8 0 1.1-.3.3-.8.3-1.1 0-.3-.4-.3-.9 0-1.1z"/></g><g fill="#fff"><path d="M427.7 173.1v4.9h18.9v-4.9h-18.9zm2.5 3.3c-.5 0-.9-.4-.9-.9s.4-.9.9-.9.9.4.9.9-.4.9-.9.9zm3-.1c-.5 0-1-.4-1-.8 0-.5.4-.8 1-.8.5 0 1 .4 1 .8s-.5.8-1 .8zM427.8 197h18.8v-17.8h-18.8v17.8zm9.4-14.1c3.1 0 5.6 2.5 5.6 5.6 0 3.1-2.5 5.6-5.6 5.6s-5.6-2.5-5.6-5.6c0-3.1 2.5-5.6 5.6-5.6zM437.2 192.9c2.5 0 4.4-2 4.4-4.4 0-2.4-2-4.4-4.4-4.4-2.5 0-4.4 2-4.4 4.4-.1 2.4 1.9 4.4 4.4 4.4zm0-7.9c1.8 0 3.3 1.3 3.5 3h-.2c-.3 0-.5.2-.5.5s.2.5.5.5h.2c-.2 1.7-1.7 3-3.5 3-2 0-3.5-1.6-3.5-3.5-.1-1.9 1.5-3.5 3.5-3.5z"/></g><path fill="#fff" d="M482.7 238.2v14.8h14.9v-14.8h-14.9zm2.6 10.8c-.2-.3-.4-.7-.5-1h8.6c-.1.4-.3.7-.5 1h-7.6zm-.6-2v-.5c0-.2 0-.4.1-.5h9c0 .2.1.4.1.5v.5h-9.2zm8.2-3c.2.3.4.7.5 1h-8.6c.1-.4.3-.7.5-1h7.6zm-.9-1h-5.7c.8-.6 1.8-1 2.9-1 1 0 2 .4 2.8 1zm-5.8 7h5.8c-.8.7-1.8 1.1-2.9 1.1s-2.1-.4-2.9-1.1z"/><g fill="#fff"><path d="M489.6 420c-6 0-11-4.9-11-11s4.9-11 11-11c6 0 11 4.9 11 11s-4.9 11-11 11zm0-19.1c-4.5 0-8.1 3.7-8.1 8.1 0 4.5 3.6 8.1 8.1 8.1s8.1-3.7 8.1-8.1c.1-4.5-3.6-8.1-8.1-8.1zM490.6 409.1c-.1-.6-.4-1-1-1v-4.9h-.9v4.9c-.7.1-1.1.6-1.1 1.6 0 .9.6 1.4 1.4 1.4 0 0 1.4 0 1.5-1.1h4v-.9h-3.9zM499.1 398.4l-3.6-2.4-.7 1.1 1.3.8-1.2 1.9 1.1.7 1.2-1.8 1.2.8z"/></g><g fill="#fff"><path d="M758.7 142.2l-5.8-3.7v4.7s0 .8.5.9c1.7.4 3.4.8 5.3.8s3.7-.3 5.4-.8c.4-.1.4-.8.4-.8v-4.8l-5.8 3.7zM758.7 125l-12 7.1 2.3 1.7 8.6-2c.1-.5.6-.9 1.2-.9.7 0 1.2.6 1.2 1.2s-.6 1.2-1.2 1.2c-.3 0-.8 0-1.1-.5-.1-.1-7.6 1.8-7.6 1.8l8.7 6 12-8.5-12.1-7.1zM749.5 135.1h-.7c-.6 2.2-1 9.3-1 9.7v.1h2.5v-.1c.2-.4-.2-7.5-.8-9.7z"/></g></g></svg>